<?xml version="1.0" standalone="no"?>
<!DOCTYPE svg PUBLIC "-//W3C//DTD SVG 20010904//EN"
 "http://www.w3.org/TR/2001/REC-SVG-20010904/DTD/svg10.dtd">
<svg version="1.0" xmlns="http://www.w3.org/2000/svg"
 width="7514.000000pt" height="5000.000000pt" viewBox="0 0 7514.000000 5000.000000"
 preserveAspectRatio="xMidYMid meet">

<g transform="translate(0.000000,5000.000000) scale(0.100000,-0.100000)"
fill="#000000" stroke="none">
<path d="M32563 40276 c-287 -166 -522 -303 -522 -306 0 -3 235 -140 522 -306
l522 -300 3 198 2 198 785 0 785 0 0 210 0 210 -785 0 -785 0 -2 198 -3 198
-522 -300z"/>
<path d="M33610 39035 l0 -195 -785 0 -785 0 0 -210 0 -210 785 0 785 0 2
-198 3 -198 515 298 c283 163 516 301 518 306 2 8 -1015 602 -1031 602 -4 0
-7 -88 -7 -195z"/>
<path d="M46943 37939 c-7 -18 -10 -36 -6 -42 3 -6 2 -7 -3 -4 -6 3 -15 -9
-22 -26 -7 -18 -24 -56 -38 -86 -14 -29 -22 -56 -19 -59 3 -3 -2 -13 -11 -23
-9 -10 -17 -29 -18 -42 0 -14 -4 -23 -8 -21 -6 4 -23 -53 -16 -58 1 -2 -5 -14
-15 -28 -9 -13 -17 -32 -17 -41 0 -10 -5 -19 -11 -21 -9 -3 -9 -9 0 -25 6 -12
10 -34 10 -50 -2 -25 -2 -25 -8 7 l-7 35 -18 -40 c-10 -22 -22 -48 -28 -58 -5
-11 -7 -21 -4 -24 3 -3 -1 -12 -9 -20 -14 -14 -20 -40 -16 -72 2 -7 -2 -10 -8
-6 -6 3 -12 -1 -12 -9 -2 -24 -4 -30 -12 -43 -4 -6 -8 -23 -9 -37 -1 -14 -6
-26 -11 -26 -5 0 -5 -10 -1 -22 3 -13 3 -19 -2 -15 -10 10 -34 -70 -27 -91 4
-8 0 -20 -8 -26 -14 -11 -36 -77 -78 -236 -11 -42 -23 -83 -27 -93 -6 -16 32
-17 682 -15 l689 3 3 533 2 533 -65 30 c-36 16 -71 27 -77 23 -7 -4 -8 -3 -4
4 6 11 0 14 -20 11 -4 0 -10 4 -13 9 -10 16 -88 52 -96 44 -3 -4 -11 1 -16 11
-7 12 -17 16 -31 11 -13 -4 -18 -2 -14 4 7 12 -22 25 -36 15 -6 -3 -8 -1 -4 5
8 14 -28 25 -55 17 -17 -6 -19 -9 -8 -17 11 -7 11 -9 1 -6 -8 2 -13 7 -12 12
1 5 -4 12 -11 17 -8 4 -10 12 -5 16 5 4 11 2 13 -4 5 -15 23 -18 23 -5 0 9
-62 39 -90 44 -8 2 -21 9 -28 16 -8 7 -18 10 -23 7 -5 -4 -9 -1 -9 4 0 7 -55
11 -163 11 l-163 0 -11 -31z m436 -51 c-5 -10 -12 -18 -14 -18 -2 0 -3 8 -2
18 0 10 7 19 13 19 9 0 10 -5 3 -19z m81 -28 c0 -5 -2 -10 -4 -10 -3 0 -8 5
-11 10 -3 6 -1 10 4 10 6 0 11 -4 11 -10z m-526 -25 c-4 -8 -11 -12 -16 -9 -6
4 -5 10 3 15 19 12 19 11 13 -6z m716 -55 c13 -8 13 -10 -2 -10 -9 0 -20 5
-23 10 -8 13 5 13 25 0z m114 -68 c2 -4 -5 -9 -17 -9 -17 -2 -19 0 -7 7 18 12
18 12 24 2z m-970 -237 c-4 -8 -8 -15 -10 -15 -2 0 -4 7 -4 15 0 8 4 15 10 15
5 0 7 -7 4 -15z m6 -50 c0 -8 -4 -15 -10 -15 -5 0 -10 7 -10 15 0 8 5 15 10
15 6 0 10 -7 10 -15z m-5 -73 c-3 -3 -11 0 -18 7 -9 10 -8 11 6 5 10 -3 15 -9
12 -12z m-78 -224 c-3 -8 -6 -5 -6 6 -1 11 2 17 5 13 3 -3 4 -12 1 -19z m-37
2 c0 -5 -7 -10 -16 -10 -8 0 -12 5 -9 10 3 6 10 10 16 10 5 0 9 -4 9 -10z
m-45 -89 c-6 -21 -25 -29 -25 -11 0 6 5 10 10 10 6 0 10 8 10 17 0 9 3 14 6
10 3 -3 3 -15 -1 -26z m-25 -121 c0 -5 -4 -10 -10 -10 -5 0 -10 5 -10 10 0 6
5 10 10 10 6 0 10 -4 10 -10z m-58 -188 c-4 -13 -7 -12 -13 4 -7 18 -8 18 -9
-1 -1 -12 -4 -15 -7 -7 -7 18 18 47 28 31 4 -7 5 -19 1 -27z m-22 -82 c0 -13
-1 -13 -10 0 -8 12 -10 12 -10 1 0 -8 -2 -12 -5 -10 -2 3 -2 15 2 28 4 17 8
19 14 9 5 -7 9 -20 9 -28z m303 -17 c-7 -2 -19 -2 -25 0 -7 3 -2 5 12 5 14 0
19 -2 13 -5z"/>
<path d="M24130 37450 l0 -60 2873 0 2872 0 1980 -1980 1980 -1980 -1253 0
-1252 0 0 -240 0 -240 2160 0 2160 0 0 240 0 240 -818 0 -817 0 -2040 2040
-2040 2040 -2902 0 -2903 0 0 -60z"/>
<path d="M48790 37225 c0 -8 2 -15 4 -15 2 0 6 7 10 15 3 8 1 15 -4 15 -6 0
-10 -7 -10 -15z"/>
<path d="M46436 36390 c-2 -8 -10 -33 -18 -55 -7 -22 -13 -44 -14 -50 0 -5 -6
-29 -12 -51 -7 -23 -10 -57 -7 -75 4 -23 3 -28 -3 -15 -6 14 -12 -8 -23 -75
-11 -65 -12 -96 -5 -101 6 -4 461 -8 1012 -8 l1000 0 18 77 c10 43 36 140 57
216 22 75 39 139 39 142 0 3 -454 5 -1010 5 -801 0 -1010 -3 -1010 -12 0 -9
-3 -8 -10 2 -8 13 -9 13 -14 0z m26 -48 c3 -9 1 -26 -3 -37 -6 -17 -8 -17 -8
-2 -1 9 -5 17 -11 17 -5 0 -10 5 -10 11 0 5 5 7 12 3 8 -5 9 -2 5 9 -3 10 -3
17 2 17 5 0 11 -8 13 -18z m13 -72 c3 -5 1 -10 -4 -10 -6 0 -11 5 -11 10 0 6
2 10 4 10 3 0 8 -4 11 -10z m-43 -22 c-7 -7 -12 -8 -12 -2 0 14 12 26 19 19 2
-3 -1 -11 -7 -17z m-47 -257 c-6 -5 -25 10 -25 20 0 5 6 4 14 -3 8 -7 12 -15
11 -17z m440 -11 c3 -5 -1 -10 -10 -10 -9 0 -13 5 -10 10 3 6 8 10 10 10 2 0
7 -4 10 -10z"/>
<path d="M46560 35810 c-237 -5 -245 -6 -245 -25 0 -11 -3 -30 -7 -42 -4 -11
-10 -50 -13 -85 -4 -34 -9 -76 -11 -93 -2 -16 -6 -57 -9 -90 -3 -33 -11 -106
-17 -163 -10 -87 -9 -105 2 -112 12 -7 11 -13 -5 -30 -19 -21 -20 -39 -20
-534 1 -409 4 -546 18 -686 10 -96 20 -205 24 -242 3 -37 9 -66 12 -64 3 2 6
-21 7 -53 1 -75 45 -361 55 -356 4 3 10 -2 13 -11 9 -24 7 -31 -5 -14 -8 11
-9 1 -4 -35 4 -27 10 -54 13 -60 4 -5 7 -21 8 -35 3 -40 14 -102 26 -145 12
-41 14 -51 16 -73 1 -7 6 -11 11 -8 5 3 11 -4 15 -17 9 -34 6 -45 -5 -18 -16
40 -19 18 -4 -29 7 -25 14 -38 15 -30 1 13 2 13 9 0 5 -8 12 -26 16 -40 7 -25
7 -25 -10 -5 -16 20 -16 20 -10 -5 4 -14 11 -48 17 -77 7 -35 14 -50 23 -47
12 5 30 -24 20 -34 -3 -3 -5 0 -5 7 0 7 -4 10 -9 7 -12 -8 -1 -58 18 -80 10
-12 11 -16 2 -11 -10 6 -11 2 -6 -16 4 -13 14 -29 21 -37 16 -16 18 -26 4 -17
-14 8 -15 16 34 -146 94 -306 160 -489 168 -473 3 5 3 3 1 -5 -5 -20 17 -82
27 -76 9 6 23 -25 15 -33 -3 -3 -5 1 -5 8 0 7 -2 11 -5 8 -7 -7 27 -88 37 -88
4 0 4 -8 1 -17 -6 -16 -5 -17 12 -3 17 14 18 14 6 -7 -6 -13 -7 -23 -2 -23 5
0 12 6 14 13 4 7 6 6 6 -5 1 -9 -4 -18 -10 -20 -12 -4 17 -88 35 -100 6 -4 8
-8 4 -8 -3 0 12 -42 34 -92 22 -51 49 -114 60 -140 12 -27 25 -45 31 -41 6 3
7 1 3 -5 -6 -11 159 -351 243 -497 18 -33 47 -85 64 -115 84 -152 314 -510
328 -510 5 0 8 -3 7 -7 -2 -5 8 -25 21 -46 18 -30 26 -36 33 -25 7 10 8 9 4
-5 -4 -11 14 -44 51 -95 30 -42 70 -97 87 -121 17 -24 58 -78 91 -120 33 -42
73 -93 88 -114 16 -21 33 -34 39 -31 6 4 8 3 5 -3 -7 -11 117 -164 251 -312
l77 -85 5 205 c8 290 -19 469 -117 773 l-45 140 -97 95 c-100 98 -174 195
-239 311 -20 36 -38 67 -41 70 -3 3 -7 12 -8 20 -2 8 -18 60 -38 116 -19 56
-40 135 -47 178 -6 42 -14 76 -17 76 -12 0 -2 284 14 400 7 53 58 209 95 293
48 109 147 259 235 354 92 100 244 212 378 278 61 30 117 55 124 55 17 0 18
-5 -21 104 -89 246 -176 557 -234 841 -48 233 -66 352 -107 720 -15 137 -23
576 -15 765 14 293 54 662 91 827 5 23 11 62 14 87 l6 46 -763 -2 c-420 -1
-873 -5 -1008 -8z m273 -17 c-7 -2 -19 -2 -25 0 -7 3 -2 5 12 5 14 0 19 -2 13
-5z m0 -30 c-7 -2 -19 -2 -25 0 -7 3 -2 5 12 5 14 0 19 -2 13 -5z m-536 -275
c-3 -7 -5 -2 -5 12 0 14 2 19 5 13 2 -7 2 -19 0 -25z m10 -90 c-3 -7 -5 -2 -5
12 0 14 2 19 5 13 2 -7 2 -19 0 -25z m-17 -53 c0 -8 -4 -15 -10 -15 -5 0 -7 7
-4 15 4 8 8 15 10 15 2 0 4 -7 4 -15z m17 -17 c-3 -7 -5 -2 -5 12 0 14 2 19 5
13 2 -7 2 -19 0 -25z m10 -85 c-3 -10 -5 -4 -5 12 0 17 2 24 5 18 2 -7 2 -21
0 -30z m0 -85 c-3 -8 -6 -5 -6 6 -1 11 2 17 5 13 3 -3 4 -12 1 -19z m-40
-1100 c-3 -8 -6 -5 -6 6 -1 11 2 17 5 13 3 -3 4 -12 1 -19z m33 -93 c0 -8 -4
-15 -10 -15 -5 0 -7 7 -4 15 4 8 8 15 10 15 2 0 4 -7 4 -15z m8 -60 c-3 -3 -9
2 -12 12 -6 14 -5 15 5 6 7 -7 10 -15 7 -18z m-3 -66 c4 -22 4 -43 1 -46 -3
-4 -6 7 -7 23 0 16 -3 23 -6 16 -4 -10 -8 -9 -18 5 -9 13 -10 22 -3 30 18 22
26 15 33 -28z m-8 -171 c-3 -7 -5 -2 -5 12 0 14 2 19 5 13 2 -7 2 -19 0 -25z
m70 -345 c-3 -10 -5 -4 -5 12 0 17 2 24 5 18 2 -7 2 -21 0 -30z m2 -65 c0 -13
-3 -17 -6 -10 -2 6 -10 9 -16 5 -7 -4 -6 1 2 10 18 22 21 21 20 -5z m18 0 c-3
-8 -6 -5 -6 6 -1 11 2 17 5 13 3 -3 4 -12 1 -19z m0 -130 c-3 -7 -5 -2 -5 12
0 14 2 19 5 13 2 -7 2 -19 0 -25z m43 -235 c-11 -17 -11 -17 -6 0 3 10 7 28 7
40 2 22 2 22 6 0 2 -12 -1 -30 -7 -40z m37 -115 c-3 -8 -6 -5 -6 6 -1 11 2 17
5 13 3 -3 4 -12 1 -19z m126 -519 c4 -16 3 -18 -9 -8 -7 6 -11 15 -8 20 8 13
11 11 17 -12z m34 -151 c-3 -8 -6 -5 -6 6 -1 11 2 17 5 13 3 -3 4 -12 1 -19z
m44 -85 c-10 -17 -10 -16 -11 3 0 23 13 41 18 25 2 -6 -1 -18 -7 -28z m25 -72
c-1 -31 -16 -33 -16 -2 0 15 8 31 15 31 1 0 2 -13 1 -29z m81 -183 c-3 -7 -5
-2 -5 12 0 14 2 19 5 13 2 -7 2 -19 0 -25z m953 -678 c0 -5 -2 -10 -4 -10 -3
0 -8 5 -11 10 -3 6 -1 10 4 10 6 0 11 -4 11 -10z"/>
<path d="M50353 33661 c0 -11 5 -18 9 -15 4 3 5 11 1 19 -7 21 -12 19 -10 -4z"/>
<path d="M50374 33603 c1 -19 5 -28 10 -23 6 6 5 18 -1 32 -10 21 -10 21 -9
-9z"/>
<path d="M50390 33551 c0 -6 -8 -11 -17 -11 -15 0 -16 -2 -3 -9 8 -6 18 -7 22
-5 9 6 11 -21 10 -106 l-1 -55 35 -2 c25 -1 34 2 34 14 0 9 -6 13 -14 10 -8
-3 -20 1 -26 9 -7 8 -9 14 -6 14 4 0 2 10 -5 21 -9 17 -8 20 3 17 7 -3 14 -14
14 -26 2 -35 4 -38 13 -23 10 16 3 51 -11 51 -5 0 -7 4 -4 8 3 5 -1 20 -9 35
-7 14 -11 28 -7 31 3 3 0 6 -7 6 -7 0 -10 4 -6 9 3 5 1 12 -5 16 -5 3 -10 1
-10 -4z"/>
<path d="M50483 33305 c0 -8 4 -12 9 -9 5 3 6 10 3 15 -9 13 -12 11 -12 -6z"/>
<path d="M50489 33278 c-6 -21 -5 -37 2 -32 5 3 6 10 3 16 -4 7 -2 8 5 4 6 -4
8 -12 5 -18 -4 -6 0 -15 7 -20 10 -7 7 -7 -8 -3 -26 7 -34 -19 -9 -28 25 -10
37 16 25 52 -9 25 -26 41 -30 29z"/>
<path d="M50516 33192 c-3 -5 -3 -20 -1 -33 3 -12 -1 -27 -8 -31 -7 -5 -2 -8
15 -8 36 0 45 18 18 37 -16 11 -19 18 -10 23 8 5 9 10 2 14 -6 3 -13 2 -16 -2z"/>
<path d="M50489 33180 c0 -8 -3 -26 -5 -39 -5 -27 -2 -26 14 5 7 12 7 26 1 35
-7 12 -9 12 -10 -1z"/>
<path d="M50560 33090 c0 -5 5 -10 11 -10 5 0 7 5 4 10 -3 6 -8 10 -11 10 -2
0 -4 -4 -4 -10z"/>
<path d="M50564 33045 c0 -13 5 -21 10 -17 5 3 6 -2 3 -11 -4 -10 -10 -24 -13
-32 -3 -8 -1 -15 6 -15 6 0 9 4 6 9 -3 5 1 12 9 15 13 4 14 10 5 26 -6 11 -8
24 -6 29 3 5 0 11 -8 14 -9 4 -13 -2 -12 -18z"/>
<path d="M50587 32975 c-4 -8 -2 -17 2 -20 5 -2 11 4 14 15 6 23 -8 27 -16 5z"/>
<path d="M50565 32937 c4 -37 5 -38 14 -32 5 3 13 0 17 -6 4 -7 3 -9 -4 -5 -6
3 -14 2 -17 -4 -4 -7 6 -10 28 -8 27 1 33 5 29 20 -2 10 -8 16 -12 13 -5 -3
-12 0 -16 6 -4 7 -3 9 4 5 6 -3 13 -2 17 4 3 5 1 10 -4 10 -19 0 -26 2 -42 11
-13 6 -16 4 -14 -14z"/>
<path d="M50643 32855 c0 -8 4 -15 9 -15 4 0 8 4 8 9 0 6 -4 12 -8 15 -5 3 -9
-1 -9 -9z"/>
<path d="M50643 32808 c-2 -16 1 -17 13 -8 17 15 17 17 1 23 -8 3 -14 -3 -14
-15z"/>
<path d="M50649 32768 c-11 -20 -10 -21 3 -11 8 7 18 10 21 6 12 -11 8 -23 -8
-23 -21 0 -31 -30 -14 -41 11 -7 11 -9 1 -9 -7 0 -10 -4 -7 -10 12 -19 23 -10
20 17 -3 25 -2 26 11 8 9 -12 10 -23 5 -28 -5 -5 -7 -17 -4 -26 4 -14 3 -14
-6 -1 -8 11 -11 -400 -13 -1444 -2 -1160 0 -1460 10 -1463 13 -5 17 -33 5 -33
-5 0 -19 9 -32 19 -16 12 -20 21 -12 25 16 11 13 26 -4 20 -8 -4 -15 -1 -15 5
0 6 -4 11 -10 11 -5 0 -6 -8 -3 -17 5 -12 -7 -7 -35 15 -46 37 -49 42 -26 42
8 0 12 -5 9 -11 -4 -6 2 -5 14 3 17 10 25 10 41 0 25 -15 27 -15 33 2 4 11 -9
14 -61 14 -92 0 -90 0 -97 21 -3 11 -26 29 -51 41 -35 18 -42 25 -34 36 7 7
10 23 7 36 -4 20 -4 20 -6 -4 -1 -33 -14 -35 -40 -9 -10 10 -26 23 -34 27 -22
13 -150 127 -252 225 l-90 87 -90 -75 c-90 -75 -90 -76 -123 -167 -45 -123
-107 -368 -126 -497 -12 -79 -16 -186 -16 -418 l0 -311 -75 0 -75 0 0 -75 0
-75 -347 0 -347 0 76 -70 c206 -189 488 -422 714 -587 204 -150 621 -423 645
-423 5 0 9 -4 9 -8 0 -5 23 -19 50 -32 28 -13 50 -27 50 -32 0 -4 6 -8 13 -8
8 0 21 -8 30 -17 15 -17 17 -22 17 -40 0 -5 4 -2 9 5 7 12 13 11 37 -3 16 -9
22 -14 12 -11 -9 2 -29 1 -45 -4 -22 -7 -16 -8 29 -6 44 3 61 0 73 -14 8 -9
12 -19 9 -23 -3 -3 5 -3 18 0 21 6 22 5 9 -11 -8 -10 -23 -15 -33 -13 -10 3
-18 1 -18 -3 0 -10 59 -24 67 -16 4 3 -2 6 -13 6 -19 1 -19 1 0 12 15 8 21 8
24 0 2 -6 10 -8 19 -5 11 4 14 2 9 -5 -5 -8 3 -12 23 -12 17 0 31 -4 31 -9 0
-5 9 -13 21 -16 26 -9 21 -41 -6 -38 -11 1 -14 0 -7 -3 9 -5 12 -680 12 -3329
0 -2649 3 -3324 13 -3329 6 -3 1 -3 -13 1 -23 5 -24 5 -10 -12 8 -11 10 -16 4
-13 -6 4 -10 -8 -11 -33 -1 -32 2 -39 19 -39 10 0 17 -4 13 -10 -3 -5 -12 -7
-20 -4 -16 7 -18 -33 -2 -53 5 -7 6 -13 1 -13 -5 0 -10 -12 -11 -27 -1 -21 1
-23 8 -11 5 9 10 24 12 34 1 11 5 24 9 29 17 28 159 499 154 511 -3 8 -2 13 3
10 5 -3 14 16 21 42 7 26 21 72 31 102 32 100 159 571 219 815 368 1492 560
3054 560 4554 0 379 1 403 18 398 9 -2 105 -32 212 -66 617 -195 1199 -307
1880 -363 235 -19 965 -16 1210 5 648 57 1224 169 1810 354 300 94 766 271
782 297 4 6 8 7 8 1 0 -5 5 -2 11 8 7 12 17 16 29 12 16 -5 18 -2 15 17 -4 20
-3 21 8 7 13 -18 41 -14 30 4 -3 7 -3 9 2 5 11 -11 65 20 65 37 0 8 -8 15 -17
15 -14 0 -15 -2 -4 -9 9 -6 10 -10 2 -16 -18 -10 -42 15 -36 36 5 15 1 19 -18
19 -14 0 -27 7 -31 18 -12 32 -37 72 -46 72 -5 0 -14 16 -20 35 -6 19 -16 35
-22 35 -6 0 -8 -7 -4 -15 3 -8 0 -15 -5 -15 -7 0 -9 -11 -7 -25 3 -14 1 -25
-5 -25 -6 0 -7 16 -3 40 9 60 -3 120 -24 120 -10 0 -21 8 -24 18 -12 32 -37
72 -46 72 -5 0 -14 16 -20 35 -6 19 -16 35 -22 35 -6 0 -8 -7 -4 -15 3 -8 0
-15 -5 -15 -7 0 -9 -11 -7 -25 3 -14 1 -25 -5 -25 -6 0 -7 16 -3 40 9 60 -3
120 -24 120 -10 0 -21 8 -24 18 -12 32 -37 72 -46 72 -5 0 -14 16 -20 35 -6
19 -16 35 -22 35 -6 0 -8 -7 -4 -15 3 -8 0 -15 -5 -15 -7 0 -9 -11 -7 -25 3
-14 1 -25 -5 -25 -6 0 -7 16 -3 40 9 60 -3 120 -24 120 -10 0 -21 8 -24 18
-12 32 -37 72 -46 72 -5 0 -14 16 -20 35 -6 19 -16 35 -22 35 -6 0 -8 -7 -4
-15 3 -8 0 -15 -5 -15 -7 0 -9 -11 -7 -25 3 -14 1 -25 -5 -25 -6 0 -7 16 -3
40 9 60 -3 120 -24 120 -10 0 -21 8 -24 18 -12 32 -37 72 -46 72 -5 0 -14 16
-20 35 -6 19 -16 35 -22 35 -6 0 -8 -7 -4 -15 3 -8 0 -15 -5 -15 -7 0 -9 -11
-7 -25 3 -14 1 -25 -5 -25 -6 0 -7 16 -3 40 9 60 -3 120 -24 120 -10 0 -21 8
-24 18 -12 32 -37 72 -46 72 -5 0 -14 16 -20 35 -6 19 -16 35 -22 35 -6 0 -8
-7 -4 -15 3 -8 0 -15 -5 -15 -7 0 -9 -11 -7 -25 3 -14 1 -25 -5 -25 -6 0 -7
16 -3 40 9 60 -3 120 -24 120 -10 0 -20 8 -24 18 -7 21 -28 55 -39 63 -5 3 -8
8 -6 10 6 11 -14 48 -23 43 -6 -4 -9 -1 -6 7 3 8 13 13 23 12 11 -1 14 2 8 8
-6 6 -21 5 -39 -2 -16 -7 -33 -11 -37 -10 -5 1 -5 -4 -1 -10 5 -9 2 -10 -9 -6
-9 3 -16 3 -16 -1 3 -19 -2 -26 -10 -13 -6 9 -14 10 -22 5 -8 -5 -17 -9 -21
-10 -5 -1 -10 -3 -13 -4 -3 -1 -10 -3 -17 -4 -7 0 -18 -12 -25 -26 -9 -18 -13
-20 -13 -7 0 9 -1 17 -2 17 -2 0 -50 -16 -108 -35 -487 -163 -1010 -266 -1555
-305 -180 -13 -620 -13 -800 0 -822 59 -1588 267 -2315 626 l-126 62 -18 138
c-103 801 -288 1694 -540 2612 -7 23 -14 41 -17 38 -2 -3 -5 8 -5 24 -1 16 -5
37 -9 47 -5 10 -10 27 -12 38 -15 83 -223 735 -234 735 -5 0 -14 -10 -20 -22z
m5931 -3960 c0 -4 -7 -8 -15 -8 -8 0 -15 4 -15 8 0 5 7 9 15 9 8 0 15 -4 15
-9z m40 2 c0 -5 -7 -7 -15 -4 -8 4 -15 8 -15 10 0 2 7 4 15 4 8 0 15 -4 15
-10z m-160 -21 c0 -10 5 -21 10 -24 6 -3 10 -16 9 -28 0 -21 -1 -21 -12 3 -6
14 -14 27 -17 30 -15 12 -17 37 -4 37 8 0 14 -8 14 -18z m-30 -59 c0 -5 -4
-10 -10 -10 -5 0 -10 5 -10 10 0 6 5 10 10 10 6 0 10 -4 10 -10z m-32 -25 c-3
-3 -9 2 -12 12 -6 14 -5 15 5 6 7 -7 10 -15 7 -18z m-21 -57 c-3 -7 -5 -2 -5
12 0 14 2 19 5 13 2 -7 2 -19 0 -25z m388 -57 c3 -5 1 -12 -5 -16 -5 -3 -10 1
-10 9 0 18 6 21 15 7z m-305 -41 c0 -5 -2 -10 -4 -10 -3 0 -8 5 -11 10 -3 6
-1 10 4 10 6 0 11 -4 11 -10z m168 -20 c8 -16 12 -36 9 -42 -2 -7 -8 -1 -12
15 -4 15 -11 27 -16 27 -5 0 -9 7 -9 15 0 25 14 17 28 -15z m-38 -40 c0 -5 -4
-10 -10 -10 -5 0 -10 5 -10 10 0 6 5 10 10 10 6 0 10 -4 10 -10z m-53 -82 c-3
-7 -5 -2 -5 12 0 14 2 19 5 13 2 -7 2 -19 0 -25z m388 -57 c3 -5 1 -12 -5 -16
-5 -3 -10 1 -10 9 0 18 6 21 15 7z m-305 -41 c0 -5 -2 -10 -4 -10 -3 0 -8 5
-11 10 -3 6 -1 10 4 10 6 0 11 -4 11 -10z m168 -20 c8 -16 12 -36 9 -42 -2 -7
-8 -1 -12 15 -4 15 -11 27 -16 27 -5 0 -9 7 -9 15 0 25 14 17 28 -15z m-38
-40 c0 -5 -4 -10 -10 -10 -5 0 -10 5 -10 10 0 6 5 10 10 10 6 0 10 -4 10 -10z
m-53 -82 c-3 -7 -5 -2 -5 12 0 14 2 19 5 13 2 -7 2 -19 0 -25z m388 -57 c3 -5
1 -12 -5 -16 -5 -3 -10 1 -10 9 0 18 6 21 15 7z m-305 -41 c0 -5 -2 -10 -4
-10 -3 0 -8 5 -11 10 -3 6 -1 10 4 10 6 0 11 -4 11 -10z m168 -20 c8 -16 12
-36 9 -42 -2 -7 -8 -1 -12 15 -4 15 -11 27 -16 27 -5 0 -9 7 -9 15 0 25 14 17
28 -15z m-38 -40 c0 -5 -4 -10 -10 -10 -5 0 -10 5 -10 10 0 6 5 10 10 10 6 0
10 -4 10 -10z m-53 -82 c-3 -7 -5 -2 -5 12 0 14 2 19 5 13 2 -7 2 -19 0 -25z
m388 -57 c3 -5 1 -12 -5 -16 -5 -3 -10 1 -10 9 0 18 6 21 15 7z m-305 -41 c0
-5 -2 -10 -4 -10 -3 0 -8 5 -11 10 -3 6 -1 10 4 10 6 0 11 -4 11 -10z m168
-20 c8 -16 12 -36 9 -42 -2 -7 -8 -1 -12 15 -4 15 -11 27 -16 27 -5 0 -9 7 -9
15 0 25 14 17 28 -15z m-38 -40 c0 -5 -4 -10 -10 -10 -5 0 -10 5 -10 10 0 6 5
10 10 10 6 0 10 -4 10 -10z m-53 -82 c-3 -7 -5 -2 -5 12 0 14 2 19 5 13 2 -7
2 -19 0 -25z m388 -57 c3 -5 1 -12 -5 -16 -5 -3 -10 1 -10 9 0 18 6 21 15 7z
m-305 -41 c0 -5 -2 -10 -4 -10 -3 0 -8 5 -11 10 -3 6 -1 10 4 10 6 0 11 -4 11
-10z m168 -20 c8 -16 12 -36 9 -42 -2 -7 -8 -1 -12 15 -4 15 -11 27 -16 27 -5
0 -9 7 -9 15 0 25 14 17 28 -15z m-38 -40 c0 -5 -4 -10 -10 -10 -5 0 -10 5
-10 10 0 6 5 10 10 10 6 0 10 -4 10 -10z m-53 -82 c-3 -7 -5 -2 -5 12 0 14 2
19 5 13 2 -7 2 -19 0 -25z m388 -57 c3 -5 1 -12 -5 -16 -5 -3 -10 1 -10 9 0
18 6 21 15 7z m-305 -41 c0 -5 -2 -10 -4 -10 -3 0 -8 5 -11 10 -3 6 -1 10 4
10 6 0 11 -4 11 -10z m168 -20 c8 -16 12 -36 9 -42 -2 -7 -8 -1 -12 15 -4 15
-11 27 -16 27 -5 0 -9 7 -9 15 0 25 14 17 28 -15z m-38 -40 c0 -5 -4 -10 -10
-10 -5 0 -10 5 -10 10 0 6 5 10 10 10 6 0 10 -4 10 -10z m-53 -82 c-3 -7 -5
-2 -5 12 0 14 2 19 5 13 2 -7 2 -19 0 -25z m257 -19 c-4 -7 -44 0 -44 7 0 2
11 3 24 2 14 -1 23 -5 20 -9z m-60 -11 c-5 -7 -2 -9 8 -6 8 4 15 0 15 -8 0 -7
-5 -10 -10 -7 -7 4 -8 -1 -3 -12 5 -15 4 -16 -8 -6 -8 7 -13 20 -11 29 5 23 4
22 11 22 3 0 2 -5 -2 -12z m-6850 -6589 c-3 -5 -10 -7 -15 -3 -5 3 -7 10 -3
15 3 5 10 7 15 3 5 -3 7 -10 3 -15z m-10 -27 c3 -5 -1 -9 -9 -9 -8 0 -15 4
-15 9 0 4 4 8 9 8 6 0 12 -4 15 -8z"/>
<path d="M48587 32298 c-384 -163 -665 -533 -714 -936 -50 -413 103 -790 434
-1074 26 -22 40 -51 76 -165 75 -232 137 -519 137 -634 l0 -49 95 0 96 0 -6
33 c-16 94 -155 1300 -151 1305 5 5 69 -45 226 -177 l64 -54 91 97 c49 53 93
96 96 96 5 0 110 -122 145 -168 8 -11 37 9 148 103 75 64 139 116 140 114 2
-2 -32 -301 -75 -664 -43 -363 -79 -666 -79 -672 0 -10 26 -13 95 -13 68 0 97
4 99 13 2 6 11 67 20 134 19 146 59 309 122 498 45 137 47 141 93 173 25 18
70 54 100 80 l54 48 -106 117 c-58 65 -123 139 -144 165 -21 26 -46 56 -57 67
-32 35 -240 316 -307 415 -225 331 -409 669 -574 1055 -23 55 -44 105 -46 111
-3 7 -28 1 -72 -18z"/>
<path d="M50274 31679 c-3 -6 -2 -15 3 -20 5 -5 9 -1 9 11 0 23 -2 24 -12 9z"/>
<path d="M21310 31345 l0 -245 1235 0 1235 0 0 245 0 245 -1235 0 -1235 0 0
-245z"/>
<path d="M24390 31345 l0 -245 395 0 395 0 0 245 0 245 -395 0 -395 0 0 -245z"/>
<path d="M27260 31345 l0 -245 1375 0 1375 0 0 245 0 245 -1375 0 -1375 0 0
-245z"/>
<path d="M32860 31345 l0 -245 2300 0 2300 0 0 245 0 245 -2300 0 -2300 0 0
-245z"/>
<path d="M38030 31345 l0 -245 1080 0 1080 0 0 245 0 245 -1080 0 -1080 0 0
-245z"/>
<path d="M50374 31415 c14 -35 18 -50 9 -38 -6 8 -14 9 -23 3 -13 -8 -13 -10
0 -10 11 0 15 -9 14 -27 -1 -16 -3 -30 -4 -33 -1 -3 -1 -9 0 -15 1 -5 2 -22 2
-36 0 -14 5 -26 12 -26 9 0 14 18 15 54 1 31 -3 53 -9 53 -5 0 -10 5 -10 11 0
5 4 8 8 5 4 -2 9 10 10 28 2 23 -3 36 -14 40 -12 4 -15 2 -10 -9z"/>
<path d="M50363 31204 c0 -7 3 -13 6 -12 20 2 22 -4 6 -15 -14 -11 -15 -16 -5
-22 9 -5 11 -4 6 3 -4 7 -3 12 3 12 5 0 12 -6 15 -12 2 -7 4 1 3 19 -1 20 -7
33 -17 36 -9 2 -17 -2 -17 -9z"/>
<path d="M50380 31130 c13 -8 13 -11 1 -19 -7 -5 -10 -14 -7 -20 4 -6 3 -11
-2 -11 -5 0 -7 -12 -4 -26 3 -16 1 -25 -5 -21 -5 3 -10 0 -10 -8 0 -8 3 -14 6
-13 18 2 31 -3 31 -13 0 -5 -4 -8 -8 -5 -4 2 -9 -4 -9 -15 -1 -12 3 -19 10
-16 8 2 12 33 13 90 1 74 -1 87 -15 87 -14 0 -14 -2 -1 -10z"/>
<path d="M50345 31111 c-3 -5 -2 -12 3 -15 5 -3 9 1 9 9 0 17 -3 19 -12 6z"/>
<path d="M50309 30848 c-5 -18 -6 -38 -1 -34 7 8 12 36 6 36 -2 0 -4 -1 -5 -2z"/>
<path d="M50220 30564 c0 -8 5 -12 10 -9 6 4 8 11 5 16 -9 14 -15 11 -15 -7z"/>
<path d="M48946 30479 c-43 -49 -83 -89 -88 -89 -5 0 -43 27 -84 61 -55 45
-74 56 -73 42 0 -10 28 -250 63 -533 l62 -515 182 -3 c100 -1 182 1 183 5 0 5
28 244 63 533 35 289 62 526 62 527 -1 1 -33 -25 -72 -57 l-72 -60 -63 77
c-35 42 -68 82 -74 89 -7 8 -32 -13 -89 -77z"/>
<path d="M50420 29911 c8 -6 18 -7 22 -4 5 2 15 -1 23 -7 9 -7 15 -8 15 -2 0
12 -24 22 -53 22 -17 0 -19 -2 -7 -9z"/>
<path d="M50566 29805 c4 -8 10 -12 15 -9 11 6 2 24 -11 24 -5 0 -7 -7 -4 -15z"/>
<path d="M31420 29505 l0 -245 1140 0 1140 0 0 245 0 245 -1140 0 -1140 0 0
-245z"/>
<path d="M11228 29208 c-384 -222 -698 -406 -698 -409 0 -6 1384 -809 1395
-809 3 0 5 119 5 265 l0 265 1050 0 1050 0 0 275 0 275 -1050 0 -1050 0 -2
270 -3 270 -697 -402z"/>
<path d="M56672 28903 c-9 -15 -7 -19 9 -20 10 -1 21 2 24 7 3 4 15 6 28 3 12
-3 18 -2 14 2 -4 5 -13 10 -20 11 -7 1 -20 5 -29 9 -11 4 -20 0 -26 -12z"/>
<path d="M56773 28913 c9 -2 14 -9 11 -15 -4 -7 -2 -8 5 -4 15 10 4 26 -17 25
-15 -1 -15 -2 1 -6z"/>
<path d="M56713 28806 c-16 -19 -4 -29 13 -11 8 7 14 16 14 19 0 10 -15 6 -27
-8z"/>
<path d="M56800 28729 c0 -5 5 -7 10 -4 6 3 10 8 10 11 0 2 -4 4 -10 4 -5 0
-10 -5 -10 -11z"/>
<path d="M56776 28663 c-5 -18 -2 -31 8 -42 15 -14 16 -11 16 27 0 47 -14 56
-24 15z"/>
<path d="M56873 28566 c-16 -19 -4 -29 13 -11 8 7 14 16 14 19 0 10 -15 6 -27
-8z"/>
<path d="M56960 28489 c0 -5 5 -7 10 -4 6 3 10 8 10 11 0 2 -4 4 -10 4 -5 0
-10 -5 -10 -11z"/>
<path d="M56936 28423 c-5 -18 -2 -31 8 -42 15 -14 16 -11 16 27 0 47 -14 56
-24 15z"/>
<path d="M57033 28326 c-16 -19 -4 -29 13 -11 8 7 14 16 14 19 0 10 -15 6 -27
-8z"/>
<path d="M57120 28249 c0 -5 5 -7 10 -4 6 3 10 8 10 11 0 2 -4 4 -10 4 -5 0
-10 -5 -10 -11z"/>
<path d="M57096 28183 c-5 -18 -2 -31 8 -42 15 -14 16 -11 16 27 0 47 -14 56
-24 15z"/>
<path d="M57193 28086 c-16 -19 -4 -29 13 -11 8 7 14 16 14 19 0 10 -15 6 -27
-8z"/>
<path d="M57280 28009 c0 -5 5 -7 10 -4 6 3 10 8 10 11 0 2 -4 4 -10 4 -5 0
-10 -5 -10 -11z"/>
<path d="M57256 27943 c-5 -18 -2 -31 8 -42 15 -14 16 -11 16 27 0 47 -14 56
-24 15z"/>
<path d="M27020 27660 l0 -240 1695 0 1695 0 0 240 0 240 -1695 0 -1695 0 0
-240z"/>
<path d="M37240 27660 l0 -240 2160 0 2160 0 0 240 0 240 -2160 0 -2160 0 0
-240z"/>
<path d="M57353 27846 c-16 -19 -4 -29 13 -11 8 7 14 16 14 19 0 10 -15 6 -27
-8z"/>
<path d="M12620 27555 l0 -265 -1050 0 -1050 0 0 -275 0 -275 1048 -2 1047 -3
5 -267 5 -267 697 402 c384 221 698 404 698 407 0 4 -1279 746 -1366 793 l-34
17 0 -265z"/>
<path d="M57440 27769 c0 -5 5 -7 10 -4 6 3 10 8 10 11 0 2 -4 4 -10 4 -5 0
-10 -5 -10 -11z"/>
<path d="M57416 27703 c-5 -18 -2 -31 8 -42 15 -14 16 -11 16 27 0 47 -14 56
-24 15z"/>
<path d="M57513 27606 c-16 -19 -4 -29 13 -11 8 7 14 16 14 19 0 10 -15 6 -27
-8z"/>
<path d="M57600 27529 c0 -5 5 -7 10 -4 6 3 10 8 10 11 0 2 -4 4 -10 4 -5 0
-10 -5 -10 -11z"/>
<path d="M57576 27463 c-5 -18 -2 -31 8 -42 15 -14 16 -11 16 27 0 47 -14 56
-24 15z"/>
<path d="M57673 27366 c-16 -19 -4 -29 13 -11 8 7 14 16 14 19 0 10 -15 6 -27
-8z"/>
<path d="M57961 27333 c-7 -8 -11 -16 -8 -19 2 -2 10 2 17 11 17 20 9 27 -9 8z"/>
<path d="M57760 27290 c0 -5 -7 -10 -16 -10 -8 0 -12 -5 -9 -10 4 -6 10 -8 15
-5 5 3 11 1 15 -5 3 -5 2 -10 -4 -10 -6 0 -7 -8 -4 -17 4 -11 8 -13 11 -5 2 7
7 10 12 7 4 -3 14 3 21 13 13 16 13 16 -5 2 -18 -14 -19 -13 -14 8 4 14 2 20
-5 15 -6 -4 -8 0 -4 10 3 10 2 17 -3 17 -6 0 -10 -4 -10 -10z"/>
<path d="M57863 27280 c-11 -16 -10 -18 2 -14 8 4 15 12 15 20 0 19 -3 18 -17
-6z"/>
<path d="M57826 27263 c-6 -14 -5 -15 5 -6 7 7 10 15 7 18 -3 3 -9 -2 -12 -12z"/>
<path d="M21360 25805 l0 -245 1695 0 1695 0 0 245 0 245 -1695 0 -1695 0 0
-245z"/>
<path d="M21360 23945 l0 -245 513 -1 512 0 -75 -27 c-144 -53 -349 -175 -487
-290 -39 -33 -104 -76 -145 -95 -262 -122 -350 -346 -250 -637 47 -134 166
-329 299 -486 124 -146 317 -345 360 -371 80 -47 255 -28 394 42 121 62 257
200 483 492 l48 62 -34 40 c-69 80 -118 203 -118 293 0 47 27 116 51 128 47
26 135 -6 192 -69 19 -21 47 -71 63 -112 21 -55 40 -84 73 -115 l44 -40 61 9
c34 6 62 11 64 12 2 2 -8 25 -21 52 -14 26 -37 88 -52 136 -37 118 -33 205 13
291 37 69 39 100 12 188 -60 194 -270 398 -492 478 l-53 19 278 1 277 0 0 245
0 245 -1005 0 -1005 0 0 -245z"/>
<path d="M27620 23945 l0 -245 2245 0 2245 0 0 245 0 245 -2245 0 -2245 0 0
-245z"/>
<path d="M27910 22075 l0 -245 975 0 975 0 0 245 0 245 -975 0 -975 0 0 -245z"/>
<path d="M37205 21819 c-112 -13 -307 -62 -422 -105 -188 -70 -223 -97 -273
-209 -119 -262 -130 -745 -18 -806 29 -17 175 -16 283 0 44 7 190 33 325 58
191 35 271 45 361 47 104 1 119 -1 139 -19 55 -50 86 -175 78 -323 l-4 -83 45
7 c101 15 95 9 103 115 4 52 12 104 17 117 17 36 70 62 126 62 83 0 125 -47
125 -138 0 -29 9 -70 21 -97 24 -55 59 -212 59 -269 0 -92 42 36 74 224 47
285 75 725 58 921 -14 154 -31 207 -88 264 -55 55 -130 84 -238 92 -69 5 -94
13 -166 50 -162 82 -394 118 -605 92z"/>
<path d="M15163 21055 c0 -8 4 -12 9 -9 5 3 6 10 3 15 -9 13 -12 11 -12 -6z"/>
<path d="M15245 20941 c-6 -11 9 -23 19 -14 9 9 7 23 -3 23 -6 0 -12 -4 -16
-9z"/>
<path d="M15286 20933 c-6 -14 -5 -15 5 -6 7 7 10 15 7 18 -3 3 -9 -2 -12 -12z"/>
<path d="M22115 20928 c-701 -172 -864 -215 -1110 -294 -155 -50 -326 -114
-352 -133 -30 -22 -77 -128 -107 -241 -115 -448 -218 -1524 -220 -2305 -1
-323 -1 -331 22 -380 37 -81 96 -152 245 -298 115 -113 257 -236 456 -395 22
-17 26 -32 37 -138 22 -207 27 -391 15 -509 -29 -272 -139 -1018 -211 -1440
-55 -316 -68 -399 -110 -660 -23 -143 -53 -318 -66 -390 -16 -87 -20 -131 -13
-136 6 -3 35 -12 65 -18 39 -9 54 -17 54 -29 -1 -188 -32 -790 -50 -982 -6
-58 -22 -231 -35 -385 -41 -457 -139 -1380 -176 -1665 -7 -47 -11 -93 -11
-102 0 -10 -2 -18 -6 -18 -4 0 -6 -20 -5 -45 1 -42 -1 -45 -20 -39 -12 3 -24
6 -27 6 -3 0 -659 0 -1457 -1 l-1453 -1 0 -45 0 -45 1454 0 c800 0 1457 -3
1459 -7 3 -5 -663 -7 -1479 -6 l-1484 3 0 -196 0 -195 76 -332 c98 -435 144
-661 144 -719 0 -99 105 -655 296 -1580 l97 -468 1077 0 1077 0 7 -92 c3 -50
6 -209 6 -352 0 -144 3 -359 7 -478 l6 -218 52 0 c44 0 53 -3 58 -20 3 -11 -8
-78 -24 -148 -77 -335 -113 -571 -108 -707 4 -83 5 -88 36 -115 18 -16 49 -34
70 -40 81 -23 303 -28 843 -20 463 7 567 11 630 25 101 23 174 59 208 103 53
69 29 185 -55 264 -43 41 -116 73 -324 144 -106 35 -222 81 -260 100 -83 44
-231 165 -320 262 -63 70 -65 73 -60 115 l6 42 117 3 117 3 5 42 c4 23 24 236
46 472 23 237 45 468 50 515 6 47 10 88 10 93 0 4 425 7 944 7 l945 0 5 -52
c3 -29 8 -186 11 -348 3 -162 8 -382 12 -488 l6 -192 63 0 63 0 6 -53 c6 -43
0 -85 -29 -208 -75 -327 -117 -616 -102 -713 6 -36 16 -57 37 -77 57 -53 69
-54 899 -54 696 0 775 2 874 18 298 51 420 152 345 287 -41 72 -120 101 -534
194 -467 105 -518 129 -734 341 l-124 122 9 69 9 69 152 3 151 3 6 47 c4 26
20 241 36 477 16 237 32 458 36 493 l6 62 4563 0 4564 0 7 51 7 51 36 -5 c230
-36 580 -31 714 9 15 5 17 -2 17 -50 l0 -56 576 0 c545 0 576 -1 569 -17 -22
-51 -35 -122 -30 -159 3 -23 24 -79 46 -125 57 -117 68 -168 79 -370 14 -242
39 -319 127 -393 33 -28 308 -163 448 -221 394 -162 615 -142 697 64 19 47 22
75 22 181 0 114 -3 133 -32 220 -18 52 -64 154 -102 225 -129 238 -149 285
-174 400 -14 61 -27 129 -31 153 l-7 42 2661 0 c1464 0 2664 0 2669 -1 4 -1 6
-6 4 -11 -4 -14 30 -38 46 -33 7 3 10 0 7 -5 -3 -6 -2 -10 3 -10 5 0 23 -14
40 -31 21 -21 36 -29 48 -25 11 4 15 2 11 -8 -3 -8 4 -21 17 -30 22 -14 23
-13 20 10 -1 13 2 22 6 19 5 -3 7 -12 4 -19 -7 -19 45 -78 63 -72 8 3 12 2 9
-2 -5 -9 28 -42 42 -42 4 0 18 -12 31 -26 16 -17 32 -24 46 -21 15 2 22 -1 21
-12 0 -8 19 -26 43 -40 24 -13 41 -19 37 -13 -3 6 -2 14 4 17 6 4 10 3 9 -2
-1 -4 -1 -13 0 -19 1 -14 51 -37 51 -24 0 6 -7 10 -15 10 -18 0 -19 9 -4 30 9
12 10 12 5 -4 -5 -13 -2 -17 9 -12 8 3 14 2 14 -2 -3 -19 2 -42 9 -40 4 1 17
-4 30 -11 18 -10 26 -10 38 0 12 10 13 9 9 -3 -5 -12 6 -20 41 -32 25 -8 50
-13 55 -10 5 3 9 0 9 -6 0 -7 6 -10 13 -7 6 2 11 11 9 18 -2 8 0 11 4 7 4 -4
12 -2 18 5 6 7 10 10 9 8 -2 -2 2 -10 9 -18 9 -11 7 -12 -7 -7 -14 6 -16 4
-10 -6 6 -9 4 -11 -5 -5 -8 5 -11 4 -7 -2 4 -6 18 -13 32 -16 20 -3 25 -1 21
10 -3 8 -1 11 4 8 6 -3 10 -12 10 -19 0 -18 35 -27 49 -13 8 8 11 6 11 -7 0
-15 6 -17 29 -14 17 2 28 1 25 -4 -3 -4 0 -9 5 -9 17 -2 35 -8 90 -30 13 -5
33 -7 45 -4 15 4 17 3 8 -3 -11 -7 -9 -10 7 -15 12 -3 21 0 21 6 0 8 3 8 8 2
10 -15 63 -37 71 -30 3 3 -1 10 -9 15 -9 6 -10 10 -3 10 6 0 15 -5 18 -10 4
-6 11 -8 16 -5 5 3 6 0 3 -8 -5 -14 4 -19 158 -67 20 -7 32 -5 43 6 13 14 15
13 15 -3 0 -13 17 -24 60 -40 33 -12 69 -20 80 -18 13 3 18 0 14 -7 -5 -7 -2
-9 9 -5 9 3 19 2 22 -3 8 -13 225 -81 236 -74 5 3 9 0 9 -5 0 -6 5 -11 11 -11
6 0 8 8 5 18 -4 11 -1 10 11 -6 18 -22 18 -22 31 -2 7 11 20 20 30 19 14 0 14
-2 -3 -8 -11 -5 -20 -14 -20 -22 0 -15 81 -48 127 -51 15 -1 28 -5 28 -9 0 -5
62 -26 100 -35 3 0 18 -6 33 -12 36 -15 44 -15 54 2 7 12 10 11 23 -2 13 -14
12 -15 -5 -8 -16 6 -18 5 -7 -6 7 -7 23 -13 37 -13 13 -1 30 -7 38 -14 9 -6
28 -13 44 -14 15 -1 30 -5 34 -9 9 -14 100 -37 92 -25 -4 7 1 6 10 -2 15 -12
29 -12 87 -2 39 7 70 18 70 24 0 8 3 8 8 2 11 -15 32 -17 48 -4 8 6 14 8 14 4
0 -4 8 -1 17 6 11 10 14 10 9 1 -5 -8 -1 -11 14 -9 12 2 25 9 29 16 6 10 10 9
14 -3 4 -9 13 -16 21 -16 10 0 13 6 10 15 -4 8 -11 12 -17 8 -6 -3 -7 -1 -3 6
6 8 15 5 31 -14 27 -28 40 -33 31 -9 -3 8 -2 12 4 9 5 -3 20 1 34 10 21 14 25
14 39 0 21 -20 30 -19 117 10 41 14 83 27 93 30 41 9 57 17 53 24 -3 4 1 8 8
8 9 0 17 -23 24 -66 7 -41 18 -71 29 -80 17 -13 17 -13 1 -8 -18 7 -25 -7 -9
-17 5 -3 7 -15 4 -25 -3 -10 0 -22 6 -25 7 -4 8 -1 5 8 -3 9 -2 16 4 16 11 0
10 -13 -3 -44 -6 -13 -3 -23 10 -32 10 -8 14 -14 8 -14 -6 0 -10 -8 -8 -17 2
-10 4 -27 5 -38 l1 -20 10 20 c8 17 9 16 4 -7 -7 -37 5 -89 19 -81 8 4 8 3 0
-6 -8 -9 -6 -34 8 -94 11 -45 21 -87 22 -94 1 -7 5 -15 8 -19 4 -3 4 -13 1
-22 -6 -15 -4 -15 14 0 27 25 37 22 12 -3 -15 -15 -18 -24 -9 -34 7 -8 7 -14
1 -17 -6 -2 -2 -26 9 -58 11 -30 19 -63 20 -73 0 -11 4 -15 12 -11 8 5 9 2 5
-9 -5 -14 -2 -16 21 -11 15 4 29 11 30 16 2 4 8 6 13 2 11 -7 80 14 94 29 7 7
6 8 -2 3 -8 -4 -11 -2 -8 6 3 8 16 14 30 14 13 0 21 -4 19 -8 -3 -5 -10 -6
-15 -3 -5 4 -9 1 -9 -5 0 -10 36 -5 49 6 9 8 -24 34 -37 29 -12 -4 -13 -3 -2
10 13 16 35 21 26 6 -8 -12 31 -44 43 -36 6 3 19 8 28 10 88 20 148 43 145 56
-3 11 -1 11 8 2 18 -17 102 16 95 37 -4 11 -2 11 8 -2 14 -18 57 -15 57 4 0 5
-6 6 -12 2 -7 -4 -9 -3 -5 1 11 13 38 15 30 2 -4 -7 0 -8 13 -3 10 4 28 9 38
12 11 2 24 9 30 15 8 9 7 10 -3 4 -9 -5 -12 -4 -7 3 5 9 13 9 26 2 12 -7 21
-7 25 0 4 6 12 6 23 0 17 -9 193 -66 290 -94 39 -11 52 -12 52 -3 0 8 3 7 9
-2 5 -7 14 -10 21 -6 8 5 9 10 2 14 -7 4 -8 12 -2 21 8 12 10 12 10 -4 0 -12
5 -16 15 -12 18 6 21 -19 3 -30 -7 -5 -8 -3 -3 6 6 9 4 11 -4 5 -7 -4 -9 -11
-4 -16 13 -12 93 -28 93 -18 0 5 4 9 10 9 5 0 6 -7 3 -17 -5 -12 -3 -14 8 -8
37 21 42 29 22 37 -15 7 -15 8 4 4 27 -5 87 30 77 46 -4 6 -3 8 3 5 6 -4 19 1
29 9 10 9 13 13 7 9 -7 -3 -13 -1 -13 5 0 7 8 9 19 5 13 -4 23 0 30 12 6 10
11 14 11 9 0 -13 30 15 30 28 0 6 -5 4 -10 -4 -6 -9 -10 -10 -10 -3 0 6 5 15
10 18 6 4 8 11 5 16 -4 5 -4 9 0 9 3 0 9 -9 13 -20 7 -19 8 -18 40 6 17 14 32
31 32 37 0 7 -7 3 -15 -7 -8 -11 -15 -14 -15 -7 0 7 -4 10 -8 7 -5 -3 -9 1 -9
9 0 10 4 12 12 5 7 -5 15 -7 19 -3 4 4 17 8 29 8 13 0 21 6 19 13 -1 8 2 11 7
7 11 -6 94 49 85 58 -3 2 9 9 25 15 17 6 31 17 31 24 0 10 -2 10 -8 1 -10 -16
-46 -21 -49 -8 -2 6 5 10 15 11 9 1 22 2 27 4 6 1 17 2 26 1 8 -1 24 8 34 19
10 11 15 20 10 20 -4 0 -2 7 5 15 9 11 16 12 25 5 9 -7 20 -3 39 15 15 14 31
25 36 25 5 0 12 5 16 12 5 7 2 9 -8 6 -9 -4 -15 0 -15 8 0 17 19 18 36 2 11
-11 11 -9 2 9 -6 12 -16 24 -23 26 -10 4 -9 6 1 6 8 1 19 -6 25 -15 10 -13 16
-14 39 -3 18 8 26 18 22 28 -2 9 0 23 6 31 8 12 9 11 5 -6 -6 -20 0 -24 39
-24 34 0 43 4 38 18 -3 8 -8 9 -12 4 -4 -6 -11 -4 -20 5 -11 12 -10 14 5 11
14 -2 18 2 16 17 -2 11 -1 17 3 13 3 -3 7 -12 9 -20 4 -26 16 -35 41 -30 14 2
28 8 30 13 3 4 12 6 20 2 8 -3 15 0 15 7 0 6 4 8 10 5 5 -3 18 -1 28 4 11 6
34 13 53 16 19 3 35 10 37 14 2 5 11 7 21 4 11 -3 22 4 29 19 7 13 10 15 8 5
-3 -9 -1 -17 4 -17 6 0 10 4 10 10 0 5 7 7 15 4 8 -4 15 -1 15 5 0 6 7 8 15 5
8 -3 20 -2 27 2 7 5 15 9 18 9 29 5 70 18 70 23 0 4 15 8 33 9 19 2 40 12 51
25 14 16 17 18 13 5 -6 -17 3 -23 17 -10 4 4 19 9 33 11 14 2 39 10 54 18 16
8 31 14 34 14 3 0 6 0 8 1 1 0 11 2 22 3 55 7 85 19 85 33 0 12 3 13 14 4 17
-14 29 0 20 24 -4 10 -13 14 -23 10 -13 -5 -14 -4 -3 7 11 11 16 10 28 -6 8
-11 14 -15 14 -9 0 15 39 23 47 10 3 -7 3 -9 -2 -5 -9 9 -45 -9 -45 -22 0 -5
30 0 68 11 37 11 83 25 102 30 55 16 90 33 90 44 0 5 4 4 9 -3 7 -11 15 -11
45 2 24 10 35 20 30 27 -4 8 -3 9 5 5 6 -4 8 -12 5 -18 -5 -7 -2 -8 7 -2 8 4
22 10 32 11 10 2 28 8 40 15 12 7 31 12 42 12 13 1 19 7 18 20 -1 17 0 17 14
3 14 -14 20 -14 63 3 26 10 51 16 54 13 3 -4 6 -1 6 6 0 7 4 10 8 7 14 -8 86
15 95 30 4 8 16 14 25 13 14 0 13 -2 -3 -9 -29 -13 -1 -12 32 1 15 6 39 13 52
15 31 6 62 23 43 24 -7 0 -10 5 -7 10 5 8 11 7 20 0 16 -13 78 -4 70 10 -3 5
0 12 6 16 8 4 9 3 5 -4 -18 -29 80 0 108 32 15 16 18 17 13 4 -9 -25 8 -22 25
3 11 17 18 20 34 12 14 -7 44 -3 111 15 80 22 91 27 80 40 -10 13 -9 14 11 3
18 -10 31 -10 60 0 20 7 43 14 51 15 8 2 18 9 22 16 7 10 9 10 9 -2 0 -12 2
-12 9 -2 4 8 11 13 15 13 3 -1 8 0 11 0 3 1 10 3 15 4 6 1 17 3 25 4 8 0 15 7
15 15 0 10 8 13 25 10 16 -3 32 3 45 16 11 11 20 15 20 10 0 -14 72 17 88 37
9 13 12 14 12 2 0 -12 2 -12 10 1 5 8 10 12 10 8 0 -11 113 40 122 55 4 7 8 8
8 3 0 -4 8 0 18 11 9 10 13 13 8 5 -5 -7 16 2 47 20 31 18 55 39 54 47 -1 8 9
15 23 17 14 2 35 16 46 30 12 15 26 24 31 21 6 -4 19 3 31 13 12 11 25 20 30
20 5 0 15 7 23 16 10 13 10 17 -2 24 -10 7 -8 9 8 7 12 0 19 -6 17 -12 -3 -5
1 -2 10 8 8 11 12 26 9 35 -4 14 -3 15 5 2 6 -8 8 -18 5 -24 -4 -5 -1 -6 6 -2
7 5 10 14 7 22 -3 8 0 11 9 8 18 -7 67 25 58 39 -3 5 -1 7 5 3 6 -3 16 0 24 7
7 8 18 16 23 18 27 11 105 74 105 85 0 6 7 18 17 25 15 13 15 12 4 -11 l-12
-25 24 27 c14 15 28 24 31 21 3 -3 8 2 12 11 3 9 10 14 14 11 12 -7 48 47 43
63 -3 6 0 12 6 12 15 0 14 -23 -1 -39 -7 -8 2 -3 20 9 17 13 32 27 32 32 0 4
5 8 10 8 11 0 176 122 235 173 17 15 38 33 48 42 9 8 20 15 25 15 15 0 71 57
64 65 -4 5 -2 5 4 2 13 -8 57 36 47 47 -4 4 0 4 8 1 9 -3 27 6 45 22 16 15 42
38 58 50 25 20 27 25 15 40 -11 15 -11 16 1 6 17 -16 52 2 48 25 -2 11 3 16
13 14 19 -3 69 52 69 75 0 9 6 13 14 10 16 -6 30 19 19 35 -3 7 -1 8 5 4 7 -4
18 8 27 31 20 47 14 95 -24 201 -16 42 -29 82 -31 87 -1 6 -6 9 -11 8 -4 -2
-6 3 -3 11 3 8 -6 37 -20 65 -14 28 -26 57 -26 65 0 8 -7 21 -15 30 -9 8 -22
29 -29 46 -7 17 -17 32 -22 33 -5 1 -8 6 -6 10 5 15 -29 68 -40 61 -7 -5 -8
-3 -4 5 15 24 -181 281 -214 281 -6 0 -21 7 -34 15 -13 9 -32 18 -42 20 -11 2
-35 9 -54 15 -46 14 -812 9 -817 -5 -1 -5 -20 -10 -40 -9 -20 1 -53 -3 -72 -8
-20 -5 -48 -9 -63 -9 -19 1 -28 -4 -28 -15 0 -13 -7 -15 -38 -9 -48 8 -146
-14 -116 -26 11 -5 0 -6 -26 -3 -32 4 -41 3 -31 -5 11 -7 3 -8 -27 -4 -36 5
-42 3 -42 -13 0 -13 -3 -15 -8 -6 -9 13 -72 6 -72 -8 0 -3 -13 -7 -30 -7 -47
0 -218 -46 -216 -57 2 -6 1 -8 -1 -3 -7 11 -51 9 -58 -3 -4 -6 -10 -8 -14 -6
-4 3 -28 -1 -53 -9 -26 -7 -50 -10 -54 -7 -4 4 -4 1 0 -5 4 -8 2 -14 -6 -14
-7 -1 -26 -2 -43 -4 -64 -5 -167 -28 -365 -81 -106 -28 -216 -42 -269 -33 -52
8 -223 57 -437 125 l-111 36 -123 -62 c-67 -34 -123 -60 -125 -58 -1 2 26 190
61 418 149 973 175 1152 171 1157 -3 3 -155 0 -339 -6 -397 -13 -3300 -82
-3304 -78 -1 1 -18 63 -37 137 -37 140 -104 338 -176 520 -74 184 -245 580
-251 580 -3 0 -64 -100 -135 -223 -187 -322 -414 -710 -516 -880 -49 -82 -89
-158 -89 -170 0 -38 39 -89 134 -176 50 -47 170 -164 266 -261 96 -97 208
-202 248 -234 39 -32 72 -59 73 -60 8 -19 134 -762 129 -764 -7 -3 -623 360
-875 516 -624 387 -949 653 -995 813 -26 89 139 521 409 1074 176 360 396 767
466 860 33 44 158 268 158 282 0 7 3 13 7 13 3 0 14 14 23 30 10 17 13 30 8
30 -6 0 -11 4 -11 10 0 5 7 6 17 3 11 -4 14 -3 9 5 -4 7 -2 12 6 12 9 0 9 3
-2 10 -13 8 -13 10 2 10 10 0 22 10 29 21 6 12 7 19 1 15 -5 -3 -13 1 -16 10
-4 11 -1 14 12 10 11 -4 22 2 30 14 15 24 9 26 -12 4 -9 -8 -16 -11 -16 -6 0
6 -9 8 -20 5 -11 -3 -17 -9 -14 -14 3 -5 0 -9 -5 -9 -17 0 -13 18 7 29 15 9
15 10 -4 8 -25 -1 -27 -33 -4 -47 13 -9 13 -10 0 -10 -8 0 -901 0 -1984 0
-1808 0 -1968 -1 -1962 -16 4 -12 2 -15 -9 -10 -20 7 -19 -11 2 -22 19 -11 11
-42 -11 -42 -17 0 -29 27 -16 35 7 4 6 13 0 26 -10 18 -6 23 13 20 4 -1 4 7
-1 16 -5 10 -8 29 -6 42 4 21 2 22 -12 10 -15 -12 -16 -10 -9 21 7 30 13 72
16 115 2 28 -24 200 -41 270 -54 228 -215 586 -402 894 -39 64 -78 129 -87
144 -15 26 -19 28 -61 22 -338 -47 -505 -63 -865 -87 -207 -14 -1392 -17
-1457 -4 -36 7 -38 9 -38 48 0 39 -1 40 -27 34 -51 -13 -558 -174 -597 -190
-21 -9 -75 -51 -120 -95 -251 -242 -372 -300 -477 -226 -26 18 -54 52 -73 86
-29 55 -32 56 -66 52 -26 -4 -42 1 -62 17 -35 27 -35 42 -2 85 14 19 60 101
103 183 l77 149 -270 6 c-148 4 -378 7 -512 7 -221 0 -242 2 -249 18 -3 9 -51
139 -105 287 -54 149 -164 448 -243 665 -80 217 -211 575 -292 795 -81 220
-150 404 -154 408 -8 8 -3700 -49 -3708 -57 -4 -4 130 -362 767 -2041 177
-467 323 -851 324 -853 3 -2 1575 -82 1619 -82 13 0 1 -20 -46 -76 -79 -94
-138 -202 -169 -309 -19 -68 -23 -102 -22 -235 0 -207 26 -339 230 -1154 52
-209 93 -385 90 -393 -3 -8 -2 -12 3 -9 13 8 22 -37 15 -73 l-6 -31 -3918 0
c-3126 0 -3919 3 -3923 13 -2 6 -6 -9 -8 -35 -2 -27 -1 -48 2 -48 3 0 4 -11 1
-25 -2 -14 -9 -25 -14 -25 -5 0 -6 -5 -3 -10 4 -7 1330 -11 3938 -12 l3932 -3
-3919 -2 c-2744 -2 -3922 -6 -3926 -14 -4 -6 -14 1 -25 18 -19 29 -29 73 -16
73 4 0 4 26 0 58 -4 31 -9 514 -13 1072 -6 1086 -11 1243 -56 1670 -16 151
-30 291 -32 310 l-3 34 77 13 c42 7 89 18 104 23 l27 11 -6 107 c-6 101 -70
733 -83 815 l-6 37 1831 0 1831 0 0 240 0 240 -1855 0 -1855 0 -4 23 c-3 12
-39 328 -81 702 -97 868 -119 1061 -152 1325 -22 175 -26 253 -25 420 1 200
28 715 38 732 3 4 122 8 264 8 l259 0 143 -172 c385 -465 662 -774 762 -852
253 -197 630 -415 1208 -700 194 -96 479 -245 633 -331 300 -168 468 -255 495
-255 23 0 173 259 159 276 -7 9 11 50 66 148 68 120 80 149 106 258 16 68 29
127 29 132 0 22 584 -16 685 -45 30 -8 67 -37 143 -113 57 -55 117 -122 134
-148 l31 -48 104 0 103 0 0 245 0 245 -651 0 -651 0 -381 229 c-539 322 -945
562 -1137 670 -91 52 -184 104 -207 117 -92 52 -320 379 -656 939 -367 611
-876 1338 -1154 1650 -71 79 -194 190 -235 211 -15 8 -123 32 -240 54 -245 46
-606 122 -888 186 l-195 44 -590 25 c-324 14 -592 24 -595 24 -3 -1 -23 -5
-45 -11z m2388 -2237 c20 -26 37 -51 37 -55 0 -3 -20 -6 -45 -6 l-45 0 0 39
c0 33 7 71 14 71 1 0 19 -22 39 -49z m7525 -4126 c87 -43 191 -153 241 -257
56 -117 78 -229 62 -328 -15 -99 -53 -166 -116 -205 -43 -26 -57 -30 -124 -30
-103 0 -170 31 -260 122 -77 78 -130 166 -161 271 -32 105 -26 254 13 329 29
56 77 100 129 120 52 20 149 10 216 -22z m-9330 -1608 c149 -421 293 -982 391
-1522 58 -325 113 -722 127 -920 3 -49 8 -93 11 -97 2 -5 -3 -8 -12 -8 -9 0
-13 -5 -10 -10 4 -6 10 -8 14 -6 10 6 8 -60 -1 -70 -5 -4 -8 -3 -8 2 0 5 -242
7 -607 4 l-608 -5 1 -32 c1 -35 -3 -38 -25 -24 -11 7 -10 13 3 33 9 14 13 28
9 31 -3 4 0 7 8 7 10 0 10 3 2 8 -10 6 284 6 974 -1 237 -2 251 -1 242 16 -9
16 -45 17 -613 15 -585 -3 -604 -2 -600 16 2 10 11 25 21 33 10 8 12 12 6 8
-9 -4 -13 1 -13 14 0 12 5 21 11 21 5 0 7 -5 3 -12 -4 -7 -3 -8 4 -4 7 4 12 2
12 -5 0 -7 3 -9 6 -6 4 4 1 13 -6 22 -15 18 0 20 20 3 12 -11 12 -10 0 5 -7
10 -20 15 -27 13 -10 -4 -13 0 -9 12 94 326 417 1652 557 2284 35 159 67 288
70 288 4 0 25 -51 47 -113z m13912 -907 c0 -5 7 -7 16 -3 10 4 22 -1 30 -11 6
-10 16 -18 21 -19 4 -1 7 -5 6 -9 -2 -4 3 -5 10 -2 7 2 22 -5 34 -16 12 -11
27 -20 33 -20 5 0 10 -10 11 -22 0 -21 1 -21 8 -4 7 18 8 18 14 3 3 -9 3 -17
-1 -18 -4 0 -19 -3 -34 -5 -22 -4 -28 -1 -28 13 0 12 -3 14 -8 6 -6 -9 -97
-13 -369 -14 -199 0 -367 2 -372 6 -6 3 -11 2 -11 -4 0 -6 -7 -8 -15 -5 -13 5
-22 34 -11 34 2 0 12 3 22 7 12 4 15 3 10 -5 -4 -7 -5 -12 -2 -12 2 0 12 -3
21 -7 15 -5 16 -3 7 14 -9 16 -8 20 6 20 9 0 20 -4 23 -9 3 -5 16 -10 27 -11
12 -1 22 -5 22 -10 0 -4 4 -6 9 -3 5 3 7 15 4 25 -5 21 7 27 67 35 19 3 59 10
89 15 65 13 70 13 51 1 -9 -6 -10 -10 -3 -10 6 0 15 5 18 11 4 6 13 8 21 5 8
-3 14 -1 14 5 0 7 17 10 44 8 24 -2 42 -1 40 3 -4 6 21 9 144 16 17 1 32 -2
32 -8z m-535 -80 c-3 -5 -13 -6 -21 -3 -12 4 -13 8 -3 14 15 9 32 2 24 -11z
m3401 -17 c-2 -9 -9 -19 -17 -21 -11 -3 -11 -1 1 7 11 8 12 11 2 11 -7 0 -10
5 -7 10 10 16 23 12 21 -7z m-3555 -8 c7 19 8 19 8 -2 1 -17 -5 -23 -19 -23
-11 0 -20 5 -20 11 0 5 -5 7 -11 3 -18 -11 -89 -15 -89 -5 0 5 11 8 25 6 14
-1 25 2 25 7 0 5 8 7 18 4 9 -3 24 -1 32 4 11 7 16 5 19 -8 3 -15 5 -15 12 3z
m896 -27 c-3 -8 -6 -5 -6 6 -1 11 2 17 5 13 3 -3 4 -12 1 -19z m-1063 -4 c4
-12 2 -15 -9 -10 -20 7 -19 -11 2 -22 19 -11 11 -42 -11 -42 -17 0 -29 27 -16
35 7 4 6 13 0 25 -8 14 -6 20 8 23 9 3 18 5 18 6 1 0 5 -6 8 -15z m-84 -15 c0
-5 -4 -8 -9 -4 -5 3 -13 0 -17 -6 -4 -8 5 -9 30 -6 20 3 36 1 36 -4 0 -5 -4
-9 -10 -9 -5 0 -7 -6 -5 -12 3 -8 -5 -14 -22 -15 -26 -1 -27 0 -8 13 16 12 16
14 3 14 -9 0 -20 -5 -24 -11 -4 -8 -10 -6 -17 6 -7 14 -5 21 9 32 22 16 34 17
34 2z m1210 -13 c-7 -7 -14 -6 -21 1 -9 9 -7 12 9 10 14 -1 18 -5 12 -11z
m-1302 -15 c3 -9 0 -11 -8 -6 -10 6 -12 4 -7 -9 6 -14 3 -17 -8 -12 -11 4
-205 -182 -667 -642 -358 -356 -655 -646 -660 -644 -5 1 -7 -1 -4 -6 6 -11
-40 -53 -48 -45 -3 4 -6 0 -6 -7 0 -7 -11 -23 -26 -36 -26 -25 -40 -31 -29
-14 3 6 2 10 -2 10 -14 0 -13 43 0 53 8 6 7 7 -4 4 -14 -5 -19 9 -32 76 -35
180 -41 249 -41 427 0 157 4 197 22 262 41 151 110 246 215 298 62 30 275 85
737 189 577 131 560 127 568 102z m3892 7 c0 -4 -4 -8 -10 -8 -5 0 -6 -7 -3
-17 4 -11 3 -14 -5 -9 -17 10 -15 43 3 43 8 0 15 -4 15 -9z m-2613 -12 c14 4
15 3 4 -4 -11 -8 -11 -10 0 -15 8 -2 2 -4 -13 -3 -14 0 -31 9 -38 19 -10 16
-9 17 9 8 11 -6 28 -8 38 -5z m93 -17 c0 -12 -27 -11 -35 1 -11 17 5 32 21 19
8 -6 14 -15 14 -20z m-1340 17 c0 -2 -8 -10 -17 -17 -16 -13 -17 -12 -4 4 13
16 21 21 21 13z m-3023 -1503 c-3 -3 -1 -17 4 -31 8 -22 8 -23 -6 -12 -8 7
-13 15 -10 18 3 3 0 11 -5 17 -6 7 -7 20 -4 30 7 16 8 16 16 0 6 -9 7 -19 5
-22z m-27 -23 c0 -7 -1313 -10 -3920 -10 -2607 0 -3920 3 -3920 10 0 7 1313
10 3920 10 2607 0 3920 -3 3920 -10z m-12049 -31 c19 -10 19 -12 5 -34 -12
-18 -12 -25 -3 -28 6 -2 10 -7 7 -10 -3 -3 -13 1 -23 8 -17 12 -17 14 4 34 18
17 20 21 6 21 -8 0 -19 5 -22 10 -8 13 1 13 26 -1z m2713 -19 c-22 -9 -29 -6
-20 9 4 6 14 7 23 4 15 -6 14 -7 -3 -13z m9361 10 c3 -5 0 -10 -7 -10 -10 0
-9 -3 2 -11 12 -8 12 -10 1 -7 -8 2 -15 12 -17 21 -2 19 11 23 21 7z m-9386
-65 c-7 -6 -1210 -7 -1217 -1 -2 3 271 6 608 6 338 0 611 -2 609 -5z m-2706
-46 c-5 -5 -618 -8 -1454 -6 l-1444 2 1448 3 c1092 1 1446 5 1441 14 -5 7 -3
8 5 3 8 -4 9 -11 4 -16z m2410 -6 c-167 -2 -439 -2 -605 0 -167 1 -31 2 302 2
333 0 469 -1 303 -2z m7700 0 c-1080 -2 -2846 -2 -3925 0 -1080 1 -197 2 1962
2 2159 0 3042 -1 1963 -2z m11514 -1599 c-3 -3 -12 -4 -19 -1 -8 3 -5 6 6 6
11 1 17 -2 13 -5z m-620 -20 c-3 -3 -12 -4 -19 -1 -8 3 -5 6 6 6 11 1 17 -2
13 -5z m100 0 c-3 -3 -12 -4 -19 -1 -8 3 -5 6 6 6 11 1 17 -2 13 -5z m-272
-44 c-9 -14 8 -12 24 3 11 9 12 9 7 0 -4 -7 -16 -18 -28 -24 -16 -9 -19 -8
-13 2 6 9 3 11 -11 6 -18 -7 -18 -7 0 8 23 17 30 19 21 5z m1090 0 c3 -5 1
-10 -4 -10 -6 0 -11 5 -11 10 0 6 2 10 4 10 3 0 8 -4 11 -10z m89 -22 c-3 -5
-12 -4 -20 3 -19 16 -18 18 6 12 11 -3 17 -9 14 -15z m8936 2 c0 -5 -4 -10
-10 -10 -5 0 -10 5 -10 10 0 6 5 10 10 10 6 0 10 -4 10 -10z m-9000 -4 c0 -2
-7 -7 -16 -10 -8 -3 -12 -2 -9 4 6 10 25 14 25 6z m7767 -2 c-3 -3 -12 -4 -19
-1 -8 3 -5 6 6 6 11 1 17 -2 13 -5z m-8967 -17 c0 -2 -10 -12 -22 -23 l-23
-19 19 23 c18 21 26 27 26 19z m1565 -17 c3 -6 -1 -7 -9 -4 -18 7 -21 14 -7
14 6 0 13 -4 16 -10z m-1561 -40 c-19 -19 -20 -19 -20 -1 0 12 5 17 15 13 11
-4 13 -1 7 14 -6 15 -5 17 6 6 10 -10 8 -16 -8 -32z m1606 6 c0 -3 -4 -8 -10
-11 -5 -3 -10 -1 -10 4 0 6 5 11 10 11 6 0 10 -2 10 -4z m-1682 -58 c-2 -6
-12 -12 -21 -14 -9 -1 -15 2 -11 7 3 5 10 7 15 4 5 -4 9 -1 9 4 0 6 3 11 6 11
3 0 4 -5 2 -12z m1922 -14 c0 -22 -16 -17 -17 6 -1 11 2 18 8 15 5 -4 9 -13 9
-21z m75 -5 c-4 -5 -12 -9 -18 -8 -9 0 -8 2 1 6 6 2 9 10 6 15 -4 7 -2 8 5 4
6 -4 9 -12 6 -17z m-1965 1 c0 -5 -5 -10 -11 -10 -5 0 -7 5 -4 10 3 6 8 10 11
10 2 0 4 -4 4 -10z m2071 -7 c8 2 11 2 6 0 -4 -3 -4 -9 -1 -15 4 -6 -2 -5 -15
1 -11 7 -21 17 -21 24 0 9 2 9 8 -1 5 -7 15 -11 23 -9z m-74 -9 c-3 -3 -12 -4
-19 -1 -8 3 -5 6 6 6 11 1 17 -2 13 -5z m6380 0 c-3 -3 -12 -4 -19 -1 -8 3 -5
6 6 6 11 1 17 -2 13 -5z m-8462 -31 c-4 -10 -8 -23 -8 -30 0 -7 -4 -10 -9 -7
-4 3 -4 13 2 23 5 10 6 21 3 25 -3 3 -1 6 6 6 9 0 11 -6 6 -17z m-42 -68 c-10
-13 -20 -21 -22 -19 -2 2 3 12 12 22 10 10 14 22 10 27 -5 4 -2 5 5 1 9 -6 8
-13 -5 -31z m2551 20 c-4 -8 -7 -15 -9 -15 -2 0 -5 7 -9 15 -3 9 0 15 9 15 9
0 12 -6 9 -15z m5236 -50 c0 -1 -9 -5 -19 -8 -13 -3 -18 -1 -14 9 4 10 33 10
33 -1z m-4895 -23 c-3 -3 -11 0 -18 7 -9 10 -8 11 6 5 10 -3 15 -9 12 -12z
m-2848 -14 c-3 -8 -6 -5 -6 6 -1 11 2 17 5 13 3 -3 4 -12 1 -19z m7840 16 c-3
-3 -12 -4 -19 -1 -8 3 -5 6 6 6 11 1 17 -2 13 -5z m2693 2 c0 -3 -4 -8 -10
-11 -5 -3 -10 -1 -10 4 0 6 5 11 10 11 6 0 10 -2 10 -4z m-10623 -13 c-4 -3
-2 -12 3 -18 8 -9 5 -14 -10 -18 -14 -3 -18 -1 -13 6 4 7 8 15 9 20 3 15 4 17
11 17 3 0 3 -3 0 -7z m7673 -9 c0 -2 -9 -4 -21 -4 -11 0 -18 4 -14 10 5 8 35
3 35 -6z m-85 -22 c-3 -3 -11 0 -18 7 -9 10 -8 11 6 5 10 -3 15 -9 12 -12z
m-75 -17 c-7 -8 -19 -15 -27 -15 -8 0 -11 -5 -7 -11 4 -8 0 -8 -15 0 -24 13
-25 17 -9 27 7 4 8 3 4 -4 -10 -16 3 -14 34 3 32 18 35 18 20 0z m-4335 -15
c-3 -5 -12 -10 -18 -10 -7 0 -6 4 3 10 19 12 23 12 15 0z m4240 -28 c-3 -3
-11 0 -18 7 -9 10 -8 11 6 5 10 -3 15 -9 12 -12z m155 14 c0 -2 -9 -6 -20 -9
-11 -3 -18 -1 -14 4 5 9 34 13 34 5z m-7605 -24 c-3 -3 -11 0 -18 7 -9 10 -8
11 6 5 10 -3 15 -9 12 -12z m3263 -27 c-3 -3 -9 2 -12 12 -6 14 -5 15 5 6 7
-7 10 -15 7 -18z m-3248 -5 c0 -5 -4 -10 -10 -10 -5 0 -10 5 -10 10 0 6 5 10
10 10 6 0 10 -4 10 -10z m3269 -27 c-6 -7 -17 -13 -23 -12 -7 0 -6 2 2 6 6 2
10 8 8 12 -3 4 1 8 9 8 11 0 12 -4 4 -14z m3916 7 c13 -6 15 -9 5 -9 -8 0 -22
4 -30 9 -18 12 -2 12 25 0z m110 0 c13 -6 15 -9 5 -9 -8 0 -22 4 -30 9 -18 12
-2 12 25 0z m-38 -16 c-3 -3 -12 -4 -19 -1 -8 3 -5 6 6 6 11 1 17 -2 13 -5z
m-7307 -98 c-1 -6 -7 4 -15 23 -8 18 -15 38 -15 45 1 6 7 -4 15 -23 8 -18 15
-38 15 -45z m3340 60 c0 -3 -4 -8 -10 -11 -5 -3 -10 -1 -10 4 0 6 5 11 10 11
6 0 10 -2 10 -4z m3680 -24 c-14 -2 -28 -9 -31 -14 -4 -7 -9 -6 -13 1 -4 6 -2
11 4 11 6 0 9 4 6 8 -3 5 9 6 27 3 29 -5 30 -6 7 -9z m-110 4 c0 -2 -7 -7 -16
-10 -8 -3 -12 -2 -9 4 6 10 25 14 25 6z m-5289 -35 c-11 -7 -10 -11 5 -20 11
-6 14 -11 8 -11 -6 0 -17 6 -23 13 -11 14 -5 27 13 27 6 0 5 -4 -3 -9z m326
-10 c0 -11 -5 -18 -9 -15 -4 3 -5 11 -1 19 7 21 12 19 10 -4z m7033 9 c0 -5
-2 -10 -4 -10 -3 0 -8 5 -11 10 -3 6 -1 10 4 10 6 0 11 -4 11 -10z m50 6 c0
-2 -7 -7 -16 -10 -8 -3 -12 -2 -9 4 6 10 25 14 25 6z m-7369 -23 c13 -16 12
-17 -3 -4 -17 13 -22 21 -14 21 2 0 10 -8 17 -17z m157 -3 c-7 -10 -14 -18
-15 -16 -6 6 9 36 18 36 5 0 4 -9 -3 -20z m25 -5 c-3 -9 -8 -14 -10 -11 -3 3
-2 9 2 15 9 16 15 13 8 -4z m137 5 c5 9 9 8 13 -3 4 -10 0 -14 -11 -13 -9 2
-17 8 -18 15 -2 8 -1 8 3 0 4 -8 7 -8 13 1z m4800 0 c0 -5 -5 -10 -11 -10 -5
0 -7 5 -4 10 3 6 8 10 11 10 2 0 4 -4 4 -10z m2145 -9 c-3 -6 -11 -11 -16 -11
-5 0 -4 6 3 14 14 16 24 13 13 -3z m97 -16 c3 -13 1 -22 -3 -19 -9 5 -13 44
-5 44 2 0 6 -11 8 -25z m-9090 -3 c3 -11 0 -19 -8 -19 -16 0 -16 0 -8 21 8 21
11 20 16 -2z m6792 6 c-3 -4 -11 -5 -19 -1 -21 7 -19 12 4 10 11 0 18 -5 15
-9z m2044 5 c-10 -2 -18 -8 -18 -13 0 -5 -7 -7 -16 -3 -13 5 -13 7 -2 14 7 5
22 8 33 8 17 -1 17 -2 3 -6z m-5481 -25 c-3 -8 -6 -5 -6 6 -1 11 2 17 5 13 3
-3 4 -12 1 -19z m5533 18 c0 -3 -4 -8 -10 -11 -5 -3 -10 -1 -10 4 0 6 5 11 10
11 6 0 10 -2 10 -4z m-5483 -22 c-3 -3 -12 -4 -19 -1 -8 3 -5 6 6 6 11 1 17
-2 13 -5z m-967 -20 c0 -2 -7 -4 -15 -4 -8 0 -15 4 -15 10 0 5 7 7 15 4 8 -4
15 -8 15 -10z m5950 6 c0 -5 -7 -7 -15 -4 -8 4 -15 8 -15 10 0 2 7 4 15 4 8 0
15 -4 15 -10z m97 4 c-3 -3 -12 -4 -19 -1 -8 3 -5 6 6 6 11 1 17 -2 13 -5z
m-4953 -25 c-8 -14 -21 -11 -21 5 0 8 6 12 14 9 7 -3 10 -9 7 -14z m41 11 c3
-6 -1 -7 -9 -4 -18 7 -21 14 -7 14 6 0 13 -4 16 -10z m5035 6 c0 -2 -7 -7 -16
-10 -8 -3 -12 -2 -9 4 6 10 25 14 25 6z m-6885 -16 c3 -5 1 -10 -4 -10 -6 0
-11 5 -11 10 0 6 2 10 4 10 3 0 8 -4 11 -10z m42 -8 c9 -15 8 -19 -2 -19 -8 0
-16 9 -18 19 -3 10 -2 18 2 18 3 0 11 -8 18 -18z m6598 8 c3 -6 -1 -7 -9 -4
-18 7 -21 14 -7 14 6 0 13 -4 16 -10z m180 0 c-3 -5 -18 -9 -33 -9 l-27 1 30
8 c17 4 31 8 33 9 2 0 0 -3 -3 -9z m-6840 -20 c10 -11 16 -20 13 -20 -3 0 -13
9 -23 20 -10 11 -16 20 -13 20 3 0 13 -9 23 -20z m765 16 c0 -2 -7 -7 -16 -10
-8 -3 -12 -2 -9 4 6 10 25 14 25 6z m4143 -26 c3 -11 1 -18 -4 -14 -5 3 -9 12
-9 20 0 9 -5 12 -12 8 -7 -4 -8 -3 -4 5 10 15 22 7 29 -19z m-3028 4 c14 18
14 18 12 -1 -2 -26 -35 -27 -48 0 -10 22 -10 22 6 2 16 -19 17 -19 30 -1z
m4835 1 c0 -2 -9 -3 -19 -2 -11 0 -18 5 -15 9 4 6 34 0 34 -7z m590 0 c0 -2
-6 -5 -13 -8 -8 -3 -14 1 -14 8 0 7 6 11 14 8 7 -3 13 -6 13 -8z m-5386 -11
c3 -8 2 -12 -4 -9 -6 3 -10 10 -10 16 0 14 7 11 14 -7z m-1760 -22 c3 -5 -1
-9 -9 -9 -8 0 -12 4 -9 9 3 4 7 8 9 8 2 0 6 -4 9 -8z m6206 -2 c0 -5 -10 -10
-22 -9 -22 0 -22 1 -3 9 11 5 21 9 23 9 1 1 2 -3 2 -9z m40 6 c0 -3 -4 -8 -10
-11 -5 -3 -10 -1 -10 4 0 6 5 11 10 11 6 0 10 -2 10 -4z m-93 -30 c0 -8 -6
-12 -15 -9 -11 5 -11 7 0 14 7 5 13 9 14 9 0 0 1 -6 1 -14z m108 -6 c3 -5 2
-10 -4 -10 -5 0 -13 5 -16 10 -3 6 -2 10 4 10 5 0 13 -4 16 -10z m-4295 -4 c0
-2 -7 -6 -15 -10 -8 -3 -15 -1 -15 4 0 6 7 10 15 10 8 0 15 -2 15 -4z m114
-25 c-2 -3 -12 3 -22 13 -16 17 -16 18 5 5 12 -7 20 -15 17 -18z m2521 20 c3
-5 2 -12 -3 -15 -5 -3 -9 1 -9 9 0 17 3 19 12 6z m2400 -1 c-3 -5 -11 -10 -16
-10 -6 0 -7 5 -4 10 3 6 11 10 16 10 6 0 7 -4 4 -10z m-5015 -9 c0 -5 -7 -12
-16 -15 -14 -5 -15 -4 -4 9 14 17 20 19 20 6z m4210 5 c0 -2 -7 -7 -16 -10 -8
-3 -12 -2 -9 4 6 10 25 14 25 6z m790 -19 c15 -2 8 -4 -16 -4 -33 0 -39 3 -30
12 6 7 13 9 16 5 3 -4 16 -10 30 -13z m-2550 -1 c0 -2 -7 -7 -16 -10 -8 -3
-12 -2 -9 4 6 10 25 14 25 6z m-3436 -35 c-2 -3 -12 3 -22 13 -16 17 -16 18 5
5 12 -7 20 -15 17 -18z m1173 -13 c-3 -7 -5 -2 -5 12 0 14 2 19 5 13 2 -7 2
-19 0 -25z m3752 21 c-17 -11 -39 -12 -39 -1 0 4 12 8 27 9 19 1 22 -1 12 -8z
m-5759 -20 c0 -6 -4 -7 -10 -4 -5 3 -10 11 -10 16 0 6 5 7 10 4 6 -3 10 -11
10 -16z m60 0 c0 -5 -8 -9 -17 -8 -11 0 -13 3 -5 6 6 2 9 10 6 15 -4 7 -2 8 4
4 7 -4 12 -11 12 -17z m5635 11 c4 -6 -1 -7 -11 -3 -13 5 -16 2 -11 -9 4 -12
1 -14 -14 -11 -22 6 -25 19 -6 26 20 9 35 8 42 -3z m960 0 c-3 -5 -14 -10 -23
-9 -14 0 -13 2 3 9 27 11 27 11 20 0z m-5769 -38 c-6 -5 -36 23 -36 34 0 4 9
-1 20 -11 11 -10 18 -20 16 -23z m29 9 c-6 -5 -25 10 -25 20 0 5 6 4 14 -3 8
-7 12 -15 11 -17z m1150 11 c-3 -3 -11 0 -18 7 -9 10 -8 11 6 5 10 -3 15 -9
12 -12z m2096 -1 c-7 -5 -12 -12 -11 -17 1 -5 -4 -10 -12 -12 -9 -2 -8 0 2 7
8 6 11 11 6 11 -5 0 -3 7 4 15 7 9 15 13 19 10 3 -3 0 -10 -8 -14z m119 3 c0
-2 -9 -4 -20 -4 -11 0 -20 4 -20 9 0 5 9 7 20 4 11 -3 20 -7 20 -9z m1444 -9
c-4 -8 -13 -15 -22 -15 -13 0 -12 3 4 15 24 18 25 18 18 0z m3216 5 c0 -5 -2
-10 -4 -10 -3 0 -8 5 -11 10 -3 6 -1 10 4 10 6 0 11 -4 11 -10z m-8855 -22
c-12 -7 -21 -6 -28 2 -9 10 -8 12 6 7 9 -4 17 -2 17 4 0 6 5 7 11 3 8 -5 6
-10 -6 -16z m85 6 c0 -8 -19 -13 -24 -6 -3 5 1 9 9 9 8 0 15 -2 15 -3z m1919
-4 c-6 -5 -18 -6 -26 -3 -19 8 -16 11 13 11 17 0 22 -3 13 -8z m2181 0 c0 -5
-2 -10 -4 -10 -3 0 -8 5 -11 10 -3 6 -1 10 4 10 6 0 11 -4 11 -10z m2375 0
c-3 -5 -12 -10 -18 -10 -7 0 -6 4 3 10 19 12 23 12 15 0z m-5730 -10 c-3 -5
-14 -10 -23 -9 -14 0 -13 2 3 9 27 11 27 11 20 0z m5605 -5 c0 -9 -9 -15 -22
-14 -20 1 -20 2 -4 6 15 4 16 7 5 14 -11 7 -11 9 4 9 9 0 17 -7 17 -15z
m-8543 -15 c-3 -11 -1 -20 4 -20 4 0 14 -10 20 -22 12 -22 12 -22 -13 1 -15
15 -23 32 -20 43 2 10 7 18 9 18 3 0 3 -9 0 -20z m48 10 c3 -5 1 -10 -4 -10
-6 0 -11 5 -11 10 0 6 2 10 4 10 3 0 8 -4 11 -10z m2195 -5 c11 -13 10 -14 -4
-9 -9 3 -16 10 -16 15 0 13 6 11 20 -6z m5220 -6 c15 -26 7 -34 -19 -19 -22
11 -26 22 -14 33 11 12 22 8 33 -14z m1025 2 c-3 -6 -11 -11 -17 -11 -6 0 -6
6 2 15 14 17 26 13 15 -4z m-4235 5 c0 -2 -7 -7 -16 -10 -8 -3 -12 -2 -9 4 6
10 25 14 25 6z m1795 -6 c-3 -5 -12 -10 -18 -10 -7 0 -6 4 3 10 19 12 23 12
15 0z m-3045 -10 c0 -5 -2 -10 -4 -10 -3 0 -8 5 -11 10 -3 6 -1 10 4 10 6 0
11 -4 11 -10z m4557 -2 c0 -7 -12 -14 -26 -15 -24 -1 -25 -1 -6 13 23 17 32
18 32 2z m-5189 -4 c12 -4 22 -13 22 -21 0 -12 -3 -12 -16 2 -10 10 -24 13
-36 9 -14 -4 -18 -2 -14 5 8 13 12 13 44 5z m1987 -14 c-3 -5 -1 -10 6 -10 7
0 10 -3 6 -6 -9 -9 -28 6 -22 17 4 5 8 9 11 9 3 0 2 -4 -1 -10z m4085 0 c0 -5
-5 -10 -11 -10 -5 0 -7 5 -4 10 3 6 8 10 11 10 2 0 4 -4 4 -10z m40 -11 c0
-23 -21 -22 -28 2 -3 11 -2 11 7 -1 9 -13 11 -13 11 3 0 9 2 17 5 17 3 0 5 -9
5 -21z m40 11 c0 -5 -4 -10 -10 -10 -5 0 -10 5 -10 10 0 6 5 10 10 10 6 0 10
-4 10 -10z m-1014 -12 c4 -7 4 -10 -1 -6 -4 4 -15 2 -24 -5 -14 -11 -14 -10
-2 6 16 20 18 21 27 5z m-1556 -4 c0 -8 -19 -13 -24 -6 -3 5 1 9 9 9 8 0 15
-2 15 -3z m35 -4 c-3 -5 -12 -10 -18 -10 -7 0 -6 4 3 10 19 12 23 12 15 0z
m-5848 -25 c0 -6 -6 -12 -12 -12 -6 0 -12 6 -12 12 0 6 6 12 12 12 6 0 12 -6
12 -12z m7143 11 c0 -3 -4 -8 -10 -11 -5 -3 -10 -1 -10 4 0 6 5 11 10 11 6 0
10 -2 10 -4z m60 -39 c0 -5 -7 -2 -15 7 -8 8 -15 20 -15 27 0 14 29 -20 30
-34z m-2861 19 c9 -10 8 -15 -3 -19 -10 -4 -14 0 -13 14 2 23 1 23 16 5z
m-1314 -6 c10 9 15 9 15 1 0 -6 -4 -11 -8 -11 -4 0 -7 -12 -6 -27 2 -37 2 -37
17 -24 10 8 14 7 14 -2 0 -24 -27 -15 -49 15 -11 17 -26 27 -34 24 -7 -3 -16
-1 -19 5 -4 5 -3 9 2 8 22 -4 34 2 27 14 -5 8 -2 8 9 -2 14 -11 20 -11 32 -1z
m1375 -11 c17 -13 18 -17 5 -10 -33 17 -51 31 -40 31 6 0 21 -10 35 -21z
m2760 17 c0 -2 -7 -7 -16 -10 -8 -3 -12 -2 -9 4 6 10 25 14 25 6z m-7198 -40
c9 -18 8 -19 -3 -6 -8 8 -21 20 -29 27 -13 11 -13 12 3 7 10 -4 22 -16 29 -28z
m5708 19 c-7 -8 -17 -15 -23 -15 -6 0 -2 7 9 15 25 19 30 19 14 0z m-3202 -12
c4 3 16 1 27 -4 14 -6 9 -7 -18 -5 -21 2 -44 9 -50 16 -10 10 -7 10 11 1 12
-7 26 -10 30 -8z m3282 13 c0 -2 -7 -7 -16 -10 -8 -3 -12 -2 -9 4 6 10 25 14
25 6z m2300 -6 c0 -5 5 -10 11 -10 5 0 7 5 4 10 -3 6 -1 10 4 10 6 0 11 -4 11
-9 0 -19 -20 -22 -42 -7 -18 13 -19 16 -5 16 9 0 17 -4 17 -10z m-5632 -25
c-3 -3 -9 2 -12 12 -6 14 -5 15 5 6 7 -7 10 -15 7 -18z m5547 2 c6 -5 0 -6
-12 -2 -12 3 -24 1 -28 -5 -8 -13 -25 -13 -25 1 0 5 4 8 9 5 5 -3 14 1 21 9 7
9 16 12 19 8 3 -4 11 -11 16 -16z m55 13 c8 -5 11 -10 5 -10 -5 0 -17 5 -25
10 -8 5 -10 10 -5 10 6 0 17 -5 25 -10z m-3516 -21 c-2 -4 1 -9 8 -11 14 -5 2
-28 -15 -28 -8 0 -8 3 1 9 11 7 11 9 -2 14 -20 8 -21 24 -1 24 8 0 12 -4 9 -8z
m1076 -4 c-6 -8 -9 -19 -6 -24 4 -5 3 -12 -2 -15 -12 -7 -11 26 1 42 5 6 12
12 14 12 3 0 0 -7 -7 -15z m-5533 -13 c-12 -13 -14 -21 -6 -29 9 -9 7 -11 -5
-9 -9 1 -21 7 -28 14 -15 15 7 42 35 42 19 0 19 -1 4 -18z m3073 8 c0 -5 -5
-10 -11 -10 -5 0 -7 5 -4 10 3 6 8 10 11 10 2 0 4 -4 4 -10z m3940 -4 c0 -2
-7 -7 -16 -10 -8 -3 -12 -2 -9 4 6 10 25 14 25 6z m-1524 -15 c-4 -5 0 -11 6
-14 7 -3 3 -4 -9 -4 -17 1 -19 4 -11 14 12 15 22 18 14 4z m-2835 -11 c5 0 9
-5 9 -10 0 -7 -6 -7 -19 0 -26 13 -34 13 -25 -2 4 -7 3 -8 -5 -4 -16 10 -2 29
16 22 8 -3 19 -6 24 -6z m404 -10 c-3 -4 -15 -6 -27 -2 -21 5 -21 6 -2 12 21
8 37 3 29 -10z m1440 10 c-3 -5 -12 -10 -18 -10 -7 0 -6 4 3 10 19 12 23 12
15 0z m2459 -4 c-3 -9 -12 -12 -22 -9 -15 6 -9 11 25 22 1 1 0 -5 -3 -13z
m-2374 -6 c0 -5 -5 -10 -11 -10 -5 0 -7 5 -4 10 3 6 8 10 11 10 2 0 4 -4 4
-10z m-50 -4 c0 -2 -9 -6 -20 -9 -11 -3 -18 -1 -14 4 5 9 34 13 34 5z m910 -2
c0 -8 -19 -13 -24 -6 -3 5 1 9 9 9 8 0 15 -2 15 -3z m97 -16 c-3 -8 -6 -5 -6
6 -1 11 2 17 5 13 3 -3 4 -12 1 -19z m2163 12 c-8 -5 -19 -10 -25 -10 -5 0 -3
5 5 10 8 5 20 10 25 10 6 0 3 -5 -5 -10z m100 -13 c0 -8 -3 -8 -11 0 -6 6 -19
9 -28 6 -13 -4 -13 -3 -2 5 16 12 41 5 41 -11z m-5117 -4 c-7 -2 -19 -2 -25 0
-7 3 -2 5 12 5 14 0 19 -2 13 -5z m4112 -13 c3 -6 -1 -7 -9 -4 -18 7 -21 14
-7 14 6 0 13 -4 16 -10z m823 -21 c-3 -8 -7 -3 -11 10 -4 17 -3 21 5 13 5 -5
8 -16 6 -23z m-4408 -10 c0 -6 -4 -7 -10 -4 -5 3 -10 11 -10 16 0 6 5 7 10 4
6 -3 10 -11 10 -16z m2151 -2 c-10 -9 -11 -8 -5 6 3 10 9 15 12 12 3 -3 0 -11
-7 -18z m-2581 5 c0 -5 10 -14 23 -20 12 -6 17 -11 11 -11 -7 -1 -22 8 -35 19
-13 10 -18 19 -11 20 6 0 12 -4 12 -8z m377 -7 c0 -8 -4 -15 -9 -15 -10 0 -11
14 -1 23 9 10 10 9 10 -8z m1558 6 c3 -5 2 -12 -3 -15 -5 -3 -9 1 -9 9 0 17 3
19 12 6z m581 -28 c-3 -4 -6 -1 -6 4 0 13 -18 12 -40 -2 -13 -8 -13 -7 -1 8 7
9 17 14 22 11 5 -3 9 1 9 8 0 8 5 6 11 -5 6 -10 8 -21 5 -24z m1475 20 c13
-16 12 -17 -3 -4 -17 13 -22 21 -14 21 2 0 10 -8 17 -17z m-11724 -58 c100
-35 250 -83 335 -105 84 -23 158 -43 164 -45 24 -7 -34 -258 -62 -269 -55 -21
-187 20 -394 124 -144 72 -307 164 -327 183 -10 10 -1 30 42 95 31 45 57 82
58 82 2 0 85 -29 184 -65z m7846 35 c10 -12 9 -12 -5 -1 -14 10 -18 11 -18 1
0 -9 -3 -10 -13 -1 -8 6 -18 7 -22 3 -5 -4 -5 -2 -2 4 8 15 44 11 60 -6z
m4580 -10 c-3 -12 -13 -20 -27 -19 -20 0 -20 1 -1 9 11 5 16 9 10 9 -7 1 12
20 22 21 0 0 -1 -9 -4 -20z m-2632 -13 c-10 -9 -11 -8 -5 6 3 10 9 15 12 12 3
-3 0 -11 -7 -18z m-4658 0 c3 -8 1 -20 -5 -28 -8 -11 -9 -11 -5 2 3 9 0 22 -6
28 -8 8 -8 11 0 11 6 0 13 -6 16 -13z m5011 5 c3 -5 -1 -9 -9 -9 -8 0 -12 4
-9 9 3 4 7 8 9 8 2 0 6 -4 9 -8z m1484 -16 c1 -15 -1 -17 -7 -7 -7 11 -9 11
-14 0 -3 -8 -5 -5 -4 7 1 27 23 27 25 0z m737 5 c-3 -6 -11 -11 -17 -11 -6 0
-6 6 2 15 14 17 26 13 15 -4z m-2518 -7 c0 -7 -5 -10 -10 -7 -6 4 -8 0 -4 -10
4 -11 1 -15 -12 -14 -9 0 -18 9 -18 18 -1 13 3 16 14 12 10 -4 14 -2 10 4 -3
5 0 10 7 10 7 0 13 -6 13 -13z m331 2 c-2 -1 -12 -8 -22 -16 -18 -14 -18 -14
-6 7 8 12 18 19 23 16 4 -3 7 -6 5 -7z m-1958 -2 c0 -8 -19 -13 -24 -6 -3 5 1
9 9 9 8 0 15 -2 15 -3z m1673 -15 c-8 -8 -13 -7 -18 2 -5 8 -4 10 3 5 7 -4 12
-2 12 5 0 7 3 9 7 6 4 -4 2 -12 -4 -18z m237 -1 c0 -6 -6 -5 -15 2 -8 7 -15
14 -15 16 0 2 7 1 15 -2 8 -4 15 -11 15 -16z m1460 0 c0 -5 -4 -6 -10 -3 -5 3
-10 1 -10 -5 0 -6 -5 -8 -12 -4 -9 6 -9 9 0 12 7 2 10 8 7 13 -4 5 1 6 9 3 9
-3 16 -10 16 -16z m-3344 -8 c0 -20 -7 -25 -19 -13 -4 3 -2 12 4 20 15 17 15
17 15 -7z m4087 7 c4 3 7 1 7 -5 0 -17 -16 -15 -31 6 -12 15 -12 16 2 5 9 -7
19 -10 22 -6z m-4358 -7 c3 -6 -1 -7 -9 -4 -18 7 -21 14 -7 14 6 0 13 -4 16
-10z m1962 -5 c0 -8 -4 -12 -9 -9 -4 3 -8 9 -8 15 0 5 4 9 8 9 5 0 9 -7 9 -15z
m2423 -5 c0 -13 -6 -20 -17 -19 -11 0 -13 3 -5 6 6 2 12 11 12 19 0 8 2 14 5
14 3 0 5 -9 5 -20z m40 10 c0 -5 -4 -10 -10 -10 -5 0 -10 5 -10 10 0 6 5 10
10 10 6 0 10 -4 10 -10z m-4449 -18 c-7 -2 -18 1 -23 6 -8 8 -4 9 13 5 13 -4
18 -8 10 -11z m2034 0 c-3 -3 -11 0 -18 7 -9 10 -8 11 6 5 10 -3 15 -9 12 -12z
m-2065 -7 c0 -1 -12 -2 -26 -2 -17 0 -22 2 -13 7 10 7 39 3 39 -5z m-2682 -14
c2 -1 0 -6 -3 -11 -5 -8 -11 -7 -21 1 -10 8 -14 8 -14 0 0 -6 -5 -11 -11 -11
-8 0 -8 4 0 14 10 12 22 13 49 7z m32 -1 c0 -5 -2 -10 -4 -10 -3 0 -8 5 -11
10 -3 6 -1 10 4 10 6 0 11 -4 11 -10z m3089 -14 c-1 -17 -2 -18 -6 -3 -2 9 -9
15 -14 12 -5 -4 -16 -2 -25 3 -12 6 -8 9 15 9 25 0 31 -4 30 -21z m3801 4 c0
-5 -5 -10 -11 -10 -5 0 -7 5 -4 10 3 6 8 10 11 10 2 0 4 -4 4 -10z m-3760 -10
c0 -5 -4 -10 -10 -10 -5 0 -10 5 -10 10 0 6 5 10 10 10 6 0 10 -4 10 -10z
m3080 -15 c0 -8 -3 -16 -7 -18 -5 -3 -8 5 -8 18 0 13 3 21 8 18 4 -2 7 -10 7
-18z m-6187 0 c-3 -9 -8 -14 -10 -11 -3 3 -2 9 2 15 9 16 15 13 8 -4z m2821
-16 c6 5 20 5 31 0 l20 -9 -20 2 c-11 2 -25 -1 -31 -5 -7 -4 -18 1 -25 11 -11
14 -11 15 1 5 8 -7 18 -9 24 -4z m251 0 c11 -17 -1 -21 -15 -4 -8 9 -8 15 -2
15 6 0 14 -5 17 -11z m-285 -14 c0 -1 -12 -2 -26 -2 -17 0 -22 2 -13 7 10 7
39 3 39 -5z m347 -5 c8 -12 9 -21 3 -25 -6 -4 -9 -1 -8 6 2 7 -8 18 -22 26
-22 11 -23 13 -5 13 11 0 26 -9 32 -20z m3743 16 c0 -2 -7 -6 -15 -10 -8 -3
-15 -1 -15 4 0 6 7 10 15 10 8 0 15 -2 15 -4z m-6810 -20 c0 -3 -4 -8 -10 -11
-5 -3 -10 -1 -10 4 0 6 5 11 10 11 6 0 10 -2 10 -4z m3130 -11 c9 6 11 4 6 -4
-5 -7 -14 -10 -22 -7 -18 7 -18 -2 0 -19 7 -8 16 -11 20 -8 3 4 6 4 6 1 0 -3
-8 -12 -17 -19 -10 -8 -14 -9 -10 -2 4 6 0 16 -9 21 -12 6 -14 16 -9 32 5 16
9 19 15 10 4 -7 13 -9 20 -5z m3510 5 c0 -5 -5 -10 -11 -10 -5 0 -7 5 -4 10 3
6 8 10 11 10 2 0 4 -4 4 -10z m-620 -10 c0 -11 -46 -43 -67 -46 -7 -1 -11 2
-7 7 3 5 10 7 15 4 5 -4 9 -2 9 4 0 5 9 13 20 16 11 4 18 11 15 16 -4 5 -1 9
4 9 6 0 11 -4 11 -10z m-6035 -19 c3 -5 2 -12 -3 -15 -5 -3 -9 1 -9 9 0 17 3
19 12 6z m2848 -6 c-3 -9 -8 -14 -10 -11 -3 3 -2 9 2 15 9 16 15 13 8 -4z m99
-14 c8 12 9 12 6 0 -2 -8 -15 -15 -29 -17 -13 -1 -18 0 -11 2 6 3 13 13 13 22
1 14 2 13 6 -2 4 -15 7 -16 15 -5z m3694 3 c-22 -13 -31 -13 -40 -3 -8 9 -8
10 1 5 7 -4 21 -2 30 3 10 6 23 10 28 10 6 0 -3 -7 -19 -15z m-56 -9 c7 -9 8
-15 2 -15 -5 0 -12 7 -16 15 -3 8 -4 15 -2 15 2 0 9 -7 16 -15z m-681 -24
c-23 -5 -25 -8 -13 -19 9 -8 14 -9 14 -2 0 6 5 8 11 4 8 -4 7 -9 -2 -15 -8 -5
-20 -2 -31 8 -26 24 -22 33 15 32 30 -1 31 -2 6 -8z m3797 -4 c2 -2 -8 -14
-22 -28 -16 -15 -24 -19 -22 -9 2 8 -3 14 -9 13 -7 -2 -13 2 -13 8 0 6 7 8 16
5 11 -4 15 -2 11 8 -4 11 0 13 15 11 11 -3 22 -6 24 -8z m-9618 -9 c9 -9 12
-9 12 1 0 7 5 9 10 6 6 -3 10 -10 10 -14 0 -13 -34 -9 -48 6 -7 7 -10 13 -5
13 5 0 14 -5 21 -12z m2956 -10 c-4 -5 -9 -7 -12 -4 -3 3 -11 1 -19 -5 -8 -8
-13 -8 -13 -1 0 11 16 19 37 19 7 0 10 -4 7 -9z m181 -17 c-6 -5 -25 10 -25
20 0 5 6 4 14 -3 8 -7 12 -15 11 -17z m3220 19 c3 -5 1 -10 -4 -10 -6 0 -11 5
-11 10 0 6 2 10 4 10 3 0 8 -4 11 -10z m75 6 c0 -3 -4 -8 -10 -11 -5 -3 -10
-1 -10 4 0 6 5 11 10 11 6 0 10 -2 10 -4z m-88 -41 c0 -5 -5 -10 -12 -12 -7
-1 -6 0 1 4 8 4 7 8 -2 15 -11 8 -11 9 -1 6 8 -2 14 -8 14 -13z m-613 -12 c-3
-21 3 -24 19 -12 15 13 16 12 3 -4 -10 -13 -17 -15 -27 -6 -16 13 -18 29 -4
29 6 0 9 -3 9 -7z m-5634 -29 c9 -14 22 -23 29 -21 20 8 43 -10 30 -23 -8 -8
-21 -2 -47 23 -20 19 -39 32 -42 29 -3 -3 -5 0 -5 6 0 20 17 13 35 -14z m5578
6 c4 0 6 4 3 8 -3 5 1 9 9 9 11 0 12 -4 4 -13 -9 -11 -25 -12 -57 -5 -2 1 0 6
4 12 4 8 9 8 17 0 6 -6 15 -11 20 -11z m3782 10 c3 -6 -1 -7 -9 -4 -18 7 -21
14 -7 14 6 0 13 -4 16 -10z m-6240 -10 c3 -5 1 -10 -4 -10 -6 0 -11 5 -11 10
0 6 2 10 4 10 3 0 8 -4 11 -10z m59 -20 c-6 -6 -10 -3 -10 10 0 13 4 16 10 10
7 -7 7 -13 0 -20z m2989 23 c-7 -2 -19 -2 -25 0 -7 3 -2 5 12 5 14 0 19 -2 13
-5z m3172 -13 c-3 -5 -1 -10 5 -10 6 0 8 -5 4 -12 -6 -9 -9 -9 -12 0 -2 7 -8
10 -13 6 -10 -6 -12 9 -2 19 10 11 25 8 18 -3z m-6339 -17 c-3 -19 -19 -21
-21 -2 -2 9 3 16 10 16 7 0 12 -6 11 -14z m3094 2 c17 11 11 0 -12 -19 -18
-15 -20 -16 -15 -2 4 9 2 16 -3 16 -6 0 -10 5 -10 11 0 8 4 8 15 -1 8 -6 19
-9 25 -5z m78 -9 c-2 -17 -7 -22 -17 -18 -10 4 -11 7 -3 10 18 6 15 20 -5 25
-14 4 -13 5 4 6 18 1 22 -4 21 -23z m-2964 -3 c4 -10 4 -14 0 -10 -4 4 -14 1
-22 -6 -13 -10 -14 -9 -3 11 14 27 17 27 25 5z m6100 1 c3 -8 2 -12 -4 -9 -6
3 -10 10 -10 16 0 14 7 11 14 -7z m-6244 2 c0 -3 -4 -8 -10 -11 -5 -3 -10 -1
-10 4 0 6 5 11 10 11 6 0 10 -2 10 -4z m26 -18 c4 -7 3 -8 -4 -4 -7 4 -12 1
-12 -8 0 -8 -4 -17 -9 -20 -11 -7 -9 13 2 32 10 15 14 15 23 0z m149 -17 c-9
-8 -36 -10 -30 -2 2 4 11 8 20 8 8 0 13 -3 10 -6z m2715 1 c0 -4 -9 -13 -20
-19 -14 -9 -21 -10 -26 -1 -4 6 -3 8 3 5 6 -4 16 0 23 8 14 17 20 19 20 7z
m20 -27 c-7 -8 -18 -15 -26 -15 -7 0 -18 -8 -23 -17 -6 -10 -11 -14 -11 -9 0
14 64 73 68 63 2 -4 -2 -14 -8 -22z m-2835 -3 c0 -7 -4 -12 -10 -13 -5 0 -16
-5 -22 -11 -16 -13 -17 -3 -2 23 11 21 34 21 34 1z m142 5 c0 -7 -9 -14 -20
-14 -19 -2 -19 -2 -1 12 11 8 19 15 20 15 0 0 1 -6 1 -13z m-3150 -12 c0 -8
-4 -12 -9 -9 -5 3 -6 10 -3 15 9 13 12 11 12 -6z m2953 -5 c-6 -4 -11 -11 -10
-16 1 -5 -3 -10 -9 -12 -8 -3 -8 4 0 22 7 14 16 23 22 19 5 -3 4 -8 -3 -13z
m2910 0 c0 -5 -5 -10 -11 -10 -5 0 -7 5 -4 10 3 6 8 10 11 10 2 0 4 -4 4 -10z
m-2800 -4 c0 -2 -7 -7 -16 -10 -8 -3 -12 -2 -9 4 6 10 25 14 25 6z m2690 0 c0
-2 -7 -7 -16 -10 -8 -3 -12 -2 -9 4 6 10 25 14 25 6z m-5713 -23 c0 -9 -4 -10
-14 -2 -7 6 -13 12 -13 14 0 1 6 2 13 2 8 0 14 -6 14 -14z m5222 0 c-3 -21 3
-24 19 -12 15 13 16 12 3 -4 -10 -12 -17 -15 -25 -7 -17 17 -30 11 -15 -7 8
-9 9 -14 2 -10 -6 4 -18 1 -26 -8 -13 -13 -16 -12 -21 7 -3 12 -3 24 -1 27 3
2 5 -1 5 -7 0 -7 8 -12 17 -12 9 0 13 3 10 7 -4 3 -2 12 4 20 12 14 30 18 28
6z m-5059 -20 c0 -8 -5 -11 -10 -8 -7 4 -9 -3 -5 -22 5 -19 4 -24 -3 -14 -8
11 -11 11 -16 0 -3 -8 -3 -3 0 9 5 21 3 23 -18 18 -12 -3 -17 -3 -9 0 11 5 11
8 0 16 -10 7 -5 8 14 3 16 -3 26 -2 23 3 -3 5 1 9 9 9 8 0 15 -7 15 -14z
m2925 7 c3 -6 -1 -7 -9 -4 -18 7 -21 14 -7 14 6 0 13 -4 16 -10z m191 -9 c0
-15 -3 -17 -13 -9 -7 6 -10 14 -7 19 9 15 20 10 20 -10z m1859 9 c3 -5 1 -10
-4 -10 -6 0 -11 5 -11 10 0 6 2 10 4 10 3 0 8 -4 11 -10z m3879 -1 c3 -3 -4
-5 -14 -6 -11 -1 -20 2 -20 7 0 8 25 8 34 -1z m-5797 -21 c0 -13 -1 -17 -4 -9
-4 10 -7 10 -13 1 -5 -8 -9 -7 -13 5 -4 9 -3 13 2 10 5 -3 12 -1 16 5 9 14 11
13 12 -12z m-3149 -13 c-3 -3 -9 2 -12 12 -6 14 -5 15 5 6 7 -7 10 -15 7 -18z
m2989 -16 c-16 -21 -16 -21 -14 -1 0 11 5 18 11 15 6 -4 6 1 2 13 -5 14 -4 16
5 7 9 -9 8 -17 -4 -34z m53 31 c0 -5 -8 -10 -17 -10 -15 0 -16 2 -3 10 19 12
20 12 20 0z m-16 -36 c3 -8 2 -12 -4 -9 -6 3 -10 10 -10 16 0 14 7 11 14 -7z
m176 5 c0 -4 -7 -10 -16 -13 -8 -3 -13 -2 -9 3 3 5 -1 11 -7 14 -7 3 -3 4 10
4 12 -1 22 -4 22 -8z m-116 -10 c3 -3 -5 -5 -19 -5 -13 0 -22 3 -19 7 4 8 30
6 38 -2z m2414 3 c8 -6 2 -9 -18 -9 -20 0 -26 3 -18 9 7 4 15 8 18 8 3 0 11
-4 18 -8z m-2290 -37 c-3 -3 -9 2 -12 12 -6 14 -5 15 5 6 7 -7 10 -15 7 -18z
m-3048 -5 c9 -16 8 -19 -6 -13 -13 5 -15 3 -9 -7 5 -9 4 -11 -4 -6 -9 6 -9 11
1 24 11 13 10 15 -4 9 -10 -3 -18 -2 -18 3 0 18 29 10 40 -10z m3047 -33 c0
-9 -3 -17 -7 -17 -14 0 -27 23 -23 40 4 15 8 17 17 7 7 -7 13 -20 13 -30z
m1808 22 c-4 -5 -12 -9 -18 -8 -9 0 -8 2 1 6 6 2 9 10 6 15 -4 7 -2 8 5 4 6
-4 9 -12 6 -17z m3825 17 c0 -3 -4 -8 -10 -11 -5 -3 -10 -1 -10 4 0 6 5 11 10
11 6 0 10 -2 10 -4z m-5680 -10 c0 -2 -7 -7 -16 -10 -8 -3 -12 -2 -9 4 6 10
25 14 25 6z m2180 -6 c0 -5 -5 -10 -11 -10 -5 0 -7 5 -4 10 3 6 8 10 11 10 2
0 4 -4 4 -10z m-36 -15 c-4 -8 -11 -12 -16 -9 -6 4 -5 10 3 15 19 12 19 11 13
-6z m-469 -52 c-17 -12 -17 -13 -2 -13 9 0 17 -5 17 -10 0 -17 -33 5 -36 23
-1 10 3 14 14 10 11 -5 13 -3 7 7 -6 9 -4 11 5 5 10 -6 9 -11 -5 -22z m77 9
c9 -9 9 -12 0 -12 -7 0 -12 4 -12 10 0 5 -6 7 -14 4 -8 -3 -16 -1 -20 4 -8 13
32 8 46 -6z m3763 9 c3 -5 2 -12 -3 -15 -5 -3 -9 1 -9 9 0 17 3 19 12 6z
m-3484 -18 c-11 -5 -11 -7 0 -14 11 -7 10 -9 -3 -9 -18 0 -23 11 -11 23 3 4
11 7 17 6 6 0 5 -3 -3 -6z m-34 -23 c1 -11 -2 -22 -6 -24 -6 -4 -7 26 -2 42 3
8 7 -1 8 -18z m3357 -42 c-3 -5 7 -6 23 -3 19 5 24 4 14 -3 -11 -8 -11 -11 0
-16 8 -3 3 -3 -9 0 -21 5 -23 3 -18 -18 3 -12 3 -17 0 -9 -5 11 -8 11 -16 0
-7 -10 -8 -5 -3 14 4 19 2 26 -5 22 -5 -3 -10 0 -10 8 0 7 7 14 15 14 8 0 12
-4 9 -9z m-3754 -43 c0 -2 -6 -5 -13 -8 -8 -3 -14 1 -14 8 0 7 6 11 14 8 7 -3
13 -6 13 -8z m225 -6 c11 -16 1 -19 -13 -3 -7 8 -8 14 -3 14 5 0 13 -5 16 -11z
m-31 -7 c3 -5 -1 -9 -9 -9 -8 0 -12 4 -9 9 3 4 7 8 9 8 2 0 6 -4 9 -8z m3539
-33 c5 -3 1 -9 -8 -12 -9 -4 -13 -3 -10 3 3 6 1 10 -5 10 -6 0 -8 5 -5 11 4 6
10 7 14 2 3 -4 10 -11 14 -14z m-3888 -9 c-3 -5 -12 -10 -18 -10 -7 0 -6 4 3
10 19 12 23 12 15 0z m260 -10 c3 -6 -1 -7 -9 -4 -18 7 -21 14 -7 14 6 0 13
-4 16 -10z m-225 -4 c0 -2 -6 -9 -13 -15 -10 -8 -14 -7 -14 4 0 8 6 15 14 15
7 0 13 -2 13 -4z m210 -16 c0 -5 -2 -10 -4 -10 -3 0 -8 5 -11 10 -3 6 -1 10 4
10 6 0 11 -4 11 -10z m35 -10 c-3 -5 -11 -10 -16 -10 -6 0 -7 5 -4 10 3 6 11
10 16 10 6 0 7 -4 4 -10z m-379 -30 c0 -12 -4 -16 -9 -11 -5 5 -6 14 -3 20 10
15 12 14 12 -9z m32 -5 c-3 -3 -9 2 -12 12 -6 14 -5 15 5 6 7 -7 10 -15 7 -18z
m3782 11 c0 -2 -8 -10 -17 -17 -16 -13 -17 -12 -4 4 13 16 21 21 21 13z
m-3605 -44 c-3 -3 -11 0 -18 7 -9 10 -8 11 6 5 10 -3 15 -9 12 -12z m-332 -42
c4 0 5 6 1 13 -5 8 -2 8 9 -2 9 -7 17 -17 17 -21 0 -15 -31 -6 -47 14 -10 12
-11 15 -3 9 8 -7 18 -13 23 -13z m-3658 0 c-3 -5 -12 -10 -18 -10 -7 0 -6 4 3
10 19 12 23 12 15 0z m3830 0 c-3 -5 -12 -10 -18 -10 -7 0 -6 4 3 10 19 12 23
12 15 0z m3488 -3 c3 -8 0 -14 -7 -14 -7 0 -13 6 -13 14 0 7 4 13 8 13 4 0 9
-6 12 -13z m107 9 c0 -2 -8 -10 -17 -17 -16 -13 -17 -12 -4 4 13 16 21 21 21
13z m-3780 -61 c0 -2 -6 -5 -13 -8 -8 -3 -14 1 -14 8 0 7 6 11 14 8 7 -3 13
-6 13 -8z m-90 -15 c0 -5 -7 -7 -15 -4 -8 4 -15 8 -15 10 0 2 7 4 15 4 8 0 15
-4 15 -10z m-3206 -15 c3 -8 1 -15 -4 -15 -6 0 -10 7 -10 15 0 8 2 15 4 15 2
0 6 -7 10 -15z m3236 5 c0 -5 -2 -10 -4 -10 -3 0 -8 5 -11 10 -3 6 -1 10 4 10
6 0 11 -4 11 -10z m-35 -50 c3 -5 -1 -10 -10 -10 -9 0 -13 5 -10 10 3 6 8 10
10 10 2 0 7 -4 10 -10z m3268 -32 c12 3 8 -5 -10 -19 -13 -11 -15 -11 -9 -1 5
9 1 15 -13 19 -12 3 -21 9 -21 15 0 5 10 3 23 -4 12 -7 25 -11 30 -10z m-6203
-22 c0 -2 -7 -7 -16 -10 -8 -3 -12 -2 -9 4 6 10 25 14 25 6z m267 -68 c-3 -8
-6 -5 -6 6 -1 11 2 17 5 13 3 -3 4 -12 1 -19z m-40 -3 c0 -8 -4 -12 -9 -9 -4
3 -8 9 -8 15 0 5 4 9 8 9 5 0 9 -7 9 -15z m5743 9 c0 -8 -19 -13 -24 -6 -3 5
1 9 9 9 8 0 15 -2 15 -3z m-5700 -32 c0 -5 -7 -9 -15 -9 -8 0 -15 4 -15 9 0 4
7 8 15 8 8 0 15 -4 15 -8z m5335 -32 c3 -5 1 -10 -4 -10 -6 0 -11 5 -11 10 0
6 2 10 4 10 3 0 8 -4 11 -10z m116 -7 c13 -16 12 -17 -3 -5 -9 8 -23 10 -29 6
-8 -4 -9 -3 -5 4 10 17 21 15 37 -5z m-5237 -15 c-2 -3 -13 -6 -24 -5 -24 2
-18 13 9 13 11 0 18 -4 15 -8z m5092 -37 c-4 -6 -13 -11 -19 -10 -9 0 -9 2 0
6 10 3 10 10 2 26 -11 21 -10 21 6 5 10 -9 14 -21 11 -27z m-229 -17 c-3 -3
-12 -4 -19 -1 -8 3 -5 6 6 6 11 1 17 -2 13 -5z m115 -1 c-6 -2 -9 -10 -6 -15
4 -7 2 -8 -5 -4 -13 9 -5 26 12 25 9 0 8 -2 -1 -6z m-67 -13 c3 -5 1 -10 -4
-10 -6 0 -11 5 -11 10 0 6 2 10 4 10 3 0 8 -4 11 -10z m-25 -30 c0 -5 -2 -10
-4 -10 -3 0 -8 5 -11 10 -3 6 -1 10 4 10 6 0 11 -4 11 -10z m-30 -6 c0 -8 -19
-13 -24 -6 -3 5 1 9 9 9 8 0 15 -2 15 -3z m-4460 -45 c0 -6 -4 -7 -10 -4 -5 3
-10 11 -10 16 0 6 5 7 10 4 6 -3 10 -11 10 -16z m182 -13 c4 -19 1 -22 -18
-18 -13 2 -24 13 -26 26 -4 19 -1 22 18 18 13 -2 24 -13 26 -26z m841 20 c4
-10 1 -13 -8 -9 -8 3 -12 9 -9 14 7 12 11 11 17 -5z m3184 -27 c2 -16 -1 -19
-9 -11 -5 5 -7 15 -4 21 10 15 12 14 13 -10z m-3123 2 c-8 -8 -34 -10 -38 -2
-3 4 6 7 19 7 14 0 22 -2 19 -5z m-819 -50 c3 -5 2 -12 -3 -15 -5 -3 -9 1 -9
9 0 17 3 19 12 6z m78 -7 c-2 -7 -12 -15 -20 -18 -13 -5 -14 -4 -4 8 9 11 9
15 -1 19 -7 3 -3 4 8 4 13 -1 20 -6 17 -13z m115 -9 c-3 -3 -9 2 -12 12 -6 14
-5 15 5 6 7 -7 10 -15 7 -18z m439 10 c0 -8 -4 -15 -9 -15 -10 0 -11 14 -1 23
9 10 10 9 10 -8z m3063 5 c0 -5 -2 -10 -4 -10 -3 0 -8 5 -11 10 -3 6 -1 10 4
10 6 0 11 -4 11 -10z m-3575 -30 c3 -6 -1 -7 -9 -4 -18 7 -21 14 -7 14 6 0 13
-4 16 -10z m85 -4 c0 -2 -7 -7 -16 -10 -8 -3 -12 -2 -9 4 6 10 25 14 25 6z
m3367 -42 c-3 -3 -12 -4 -19 -1 -8 3 -5 6 6 6 11 1 17 -2 13 -5z m-494 -88 c4
-10 1 -13 -8 -9 -8 3 -12 9 -9 14 7 12 11 11 17 -5z m167 10 c0 -3 -4 -8 -10
-11 -5 -3 -10 -1 -10 4 0 6 5 11 10 11 6 0 10 -2 10 -4z m-2287 -56 c-3 -12
-8 -19 -11 -16 -5 6 5 36 12 36 2 0 2 -9 -1 -20z m1939 -32 c0 -4 1 -14 2 -20
1 -7 8 -18 16 -25 13 -10 12 -11 -5 -10 -13 1 -20 -4 -19 -15 1 -10 -4 -14
-12 -11 -12 4 -12 8 -2 20 18 22 19 45 1 58 -14 11 -14 12 1 12 9 0 17 -4 18
-9z m-122 -1 c0 -2 -10 -12 -22 -23 l-23 -19 19 23 c18 21 26 27 26 19z m85
-17 c10 -11 16 -20 13 -20 -3 0 -13 9 -23 20 -10 11 -16 20 -13 20 3 0 13 -9
23 -20z m-75 -14 c0 -3 -4 -8 -10 -11 -5 -3 -10 -1 -10 4 0 6 5 11 10 11 6 0
10 -2 10 -4z m60 -6 c0 -5 -2 -10 -4 -10 -3 0 -8 5 -11 10 -3 6 -1 10 4 10 6
0 11 -4 11 -10z m-10 -24 c0 -2 -8 -10 -17 -17 -16 -13 -17 -12 -4 4 13 16 21
21 21 13z m15 -26 c-3 -5 -12 -10 -18 -10 -7 0 -6 4 3 10 19 12 23 12 15 0z
m-205 -16 c0 -2 -9 -4 -20 -4 -11 0 -20 4 -20 9 0 5 9 7 20 4 11 -3 20 -7 20
-9z m-107 -1 c-7 -2 -19 -2 -25 0 -7 3 -2 5 12 5 14 0 19 -2 13 -5z m297 -18
c0 -8 -4 -15 -10 -15 -5 0 -7 7 -4 15 4 8 8 15 10 15 2 0 4 -7 4 -15z m-543
-41 c-3 -3 -12 -4 -19 -1 -8 3 -5 6 6 6 11 1 17 -2 13 -5z m118 -3 c3 -5 2
-12 -3 -15 -5 -3 -9 1 -9 9 0 17 3 19 12 6z m-35 -15 c-7 -7 -13 -7 -20 0 -6
6 -3 10 10 10 13 0 16 -4 10 -10z m-94 -18 c-10 -6 -22 -6 -26 -2 -5 5 3 10
18 11 22 1 24 0 8 -9z m404 -36 c0 -5 -7 -9 -15 -9 -8 0 -12 4 -9 9 3 4 9 8
15 8 5 0 9 -4 9 -8z m-1646 -41 c-5 -6 -34 20 -34 30 0 5 8 1 18 -8 10 -10 17
-20 16 -22z m983 23 c-3 -4 -2 -16 4 -28 10 -20 9 -20 -5 -2 -14 17 -13 36 1
36 4 0 3 -3 0 -6z m530 -9 c0 -8 -4 -12 -9 -9 -5 3 -6 10 -3 15 9 13 12 11 12
-6z m-27 0 c0 -2 -10 -9 -22 -15 -22 -11 -22 -10 -4 4 21 17 26 19 26 11z
m-55 -24 c-3 -6 -11 -11 -16 -11 -5 0 -4 6 3 14 14 16 24 13 13 -3z m-1429
-23 c0 -10 -1 -18 -3 -18 -1 0 -7 8 -12 18 -7 13 -6 19 2 19 7 0 13 -9 13 -19z
m1505 5 c13 -16 12 -17 -3 -4 -17 13 -22 21 -14 21 2 0 10 -8 17 -17z m-837
-15 c-3 -5 7 -6 23 -3 19 5 24 4 14 -3 -11 -8 -11 -11 0 -16 8 -3 3 -3 -9 0
-21 5 -23 3 -18 -18 3 -12 3 -17 0 -9 -5 11 -8 11 -16 0 -7 -10 -8 -5 -3 14 4
19 2 26 -5 22 -5 -3 -10 0 -10 8 0 7 7 14 15 14 8 0 12 -4 9 -9z m106 3 c0 -5
-7 -12 -16 -15 -14 -5 -15 -4 -4 9 14 17 20 19 20 6z m573 -32 c-8 -8 -13 -7
-18 2 -5 8 -4 10 3 5 7 -4 12 -2 12 5 0 7 3 9 7 6 4 -4 2 -12 -4 -18z m3 -37
c-2 -2 -13 1 -24 7 -12 6 -22 7 -28 1 -6 -6 -10 -3 -10 9 0 18 2 18 33 3 18
-9 31 -17 29 -20z m-81 8 c-3 -5 -11 -10 -17 -10 -6 0 -21 -8 -32 -17 -20 -17
-20 -17 -6 1 8 10 23 22 35 26 27 12 27 11 20 0z m-825 -37 c0 -19 -13 -9 -16
12 -1 8 2 13 7 9 5 -3 9 -12 9 -21z m89 4 c-2 -1 -13 -9 -24 -17 -19 -14 -19
-14 -6 3 7 9 18 17 24 17 6 0 8 -1 6 -3z m735 -20 c16 -12 14 -47 -3 -47 -7 0
-31 44 -31 55 0 9 16 5 34 -8z m-914 -41 c0 -2 -7 -7 -16 -10 -8 -3 -12 -2 -9
4 6 10 25 14 25 6z m888 -14 c2 -7 -1 -12 -8 -12 -6 0 -9 4 -6 9 4 5 1 12 -4
14 -6 3 -5 4 2 3 6 -1 14 -8 16 -14z"/>
<path d="M22064 10432 c3 -18 1 -22 -10 -18 -8 3 -14 1 -14 -4 0 -13 27 -13
35 0 3 5 1 18 -5 27 -10 16 -11 15 -6 -5z"/>
<path d="M36518 12003 c6 -2 18 -2 25 0 6 3 1 5 -13 5 -14 0 -19 -2 -12 -5z"/>
<path d="M36106 11982 c-2 -4 2 -16 10 -27 8 -10 14 -13 14 -6 0 7 5 9 10 6 6
-3 10 -1 10 4 0 6 -10 11 -22 12 -22 0 -22 1 -3 9 16 7 17 9 3 9 -9 1 -19 -2
-22 -7z"/>
<path d="M35735 11860 c-3 -5 -1 -10 4 -10 6 0 11 5 11 10 0 6 -2 10 -4 10 -3
0 -8 -4 -11 -10z"/>
<path d="M48330 7579 c0 -5 5 -7 10 -4 6 3 10 8 10 11 0 2 -4 4 -10 4 -5 0
-10 -5 -10 -11z"/>
<path d="M44030 7476 c0 -2 7 -9 15 -16 9 -7 15 -8 15 -2 0 5 -7 12 -15 16 -8
3 -15 4 -15 2z"/>
<path d="M41054 7419 c-3 -6 -1 -16 6 -22 10 -9 11 -9 5 2 -4 8 -2 17 6 22 9
6 10 9 2 9 -6 0 -15 -5 -19 -11z"/>
<path d="M51156 7013 c-6 -14 -5 -15 5 -6 7 7 10 15 7 18 -3 3 -9 -2 -12 -12z"/>
<path d="M44285 5810 c3 -5 8 -10 11 -10 2 0 4 5 4 10 0 6 -5 10 -11 10 -5 0
-7 -4 -4 -10z"/>
<path d="M46695 5060 c-3 -5 -1 -10 4 -10 6 0 11 5 11 10 0 6 -2 10 -4 10 -3
0 -8 -4 -11 -10z"/>
<path d="M15337 20909 c4 -13 8 -18 11 -10 2 7 -1 18 -6 23 -8 8 -9 4 -5 -13z"/>
<path d="M14385 20525 c-455 -88 -683 -164 -796 -264 -65 -56 -145 -223 -264
-546 -174 -472 -217 -578 -301 -750 -248 -509 -436 -1083 -395 -1208 17 -52
117 -125 277 -206 127 -63 237 -101 449 -157 93 -25 312 -92 486 -150 l316
-105 7 -37 c11 -68 6 -316 -7 -367 -9 -37 -92 -170 -306 -494 l-293 -445 24
-18 c13 -10 40 -28 61 -39 21 -11 40 -25 43 -32 2 -7 -13 -60 -34 -117 -92
-249 -186 -593 -246 -905 -157 -807 -183 -1732 -75 -2715 21 -195 47 -381 54
-388 7 -7 320 -41 545 -59 323 -25 1245 -25 1540 0 798 69 1322 192 1761 413
86 42 90 46 85 72 -4 15 -31 167 -60 337 -225 1286 -453 2462 -590 3042 l-43
182 24 21 c39 34 38 36 -76 585 -27 132 -49 240 -48 241 1 1 128 12 282 24
301 23 336 31 387 86 39 43 443 703 458 749 7 22 23 60 34 85 12 25 22 52 22
60 -1 9 -46 39 -105 70 -58 30 -109 62 -114 71 -16 25 -1 48 44 68 41 19 41
19 18 31 -30 16 -39 29 -39 58 0 17 10 28 41 41 l41 19 -36 12 c-44 14 -60 55
-30 77 22 16 109 43 138 43 17 0 15 4 -12 20 -63 39 -24 91 83 111 67 13 298
16 360 6 l40 -7 299 486 c259 422 300 493 304 534 8 87 -33 162 -112 202 -40
20 -57 21 -841 30 -440 5 -815 7 -832 3 -18 -3 -53 -21 -78 -40 l-45 -35 0 40
c0 67 -30 257 -56 357 -66 254 -182 442 -353 571 -141 107 -272 174 -412 213
-36 10 -121 39 -189 64 -67 25 -124 44 -126 43 -1 -2 11 -50 26 -106 32 -113
60 -281 60 -359 0 -76 -19 -164 -46 -210 -85 -147 -292 -132 -519 39 -151 114
-354 342 -516 581 -44 64 -83 117 -87 116 -4 0 -106 -20 -227 -44z m-516
-2283 c50 -161 91 -297 91 -302 0 -5 -42 11 -92 34 -51 24 -135 58 -185 77
-51 19 -93 39 -93 46 0 17 180 446 186 441 1 -2 43 -135 93 -296z m3494 -56
c74 -30 114 -115 102 -211 -29 -237 -340 -456 -515 -363 -148 79 -116 315 65
480 33 30 131 85 174 98 42 13 139 11 174 -4z m-2151 -690 c40 -8 132 -35 203
-61 119 -43 210 -72 337 -107 l48 -13 -35 -62 -35 -61 -62 14 c-34 8 -68 12
-75 10 -8 -3 -13 -22 -13 -48 -1 -24 -7 -54 -15 -68 -8 -14 -14 -37 -15 -51 0
-14 -11 -43 -25 -63 -14 -20 -25 -47 -25 -59 0 -46 -24 -64 -97 -70 -61 -6
-95 0 -316 52 -136 32 -250 61 -254 65 -4 3 17 106 46 229 57 243 56 240 144
285 49 26 89 27 189 8z"/>
<path d="M28580 20205 l0 -245 1340 0 1340 0 0 245 0 245 -1340 0 -1340 0 0
-245z"/>
<path d="M50560 20382 c0 -12 4 -22 9 -22 10 0 9 26 -2 36 -4 4 -7 -2 -7 -14z"/>
<path d="M50586 20384 c-3 -7 -2 -15 1 -18 4 -3 7 -23 9 -43 2 -30 0 -34 -8
-19 -5 10 -8 26 -5 36 3 11 0 17 -7 14 -6 -2 -12 -17 -12 -33 -2 -41 33 -50
47 -13 5 14 7 32 5 39 -4 9 -1 11 6 7 7 -5 9 -2 5 8 -3 9 -1 20 4 25 5 5 -1 9
-16 9 -13 0 -26 -5 -29 -12z"/>
<path d="M50565 20270 c-4 -7 0 -19 9 -28 14 -15 15 -14 11 7 -6 30 -11 35
-20 21z"/>
<path d="M50493 20151 c-10 -8 -11 -101 -1 -95 10 7 10 1 -2 -30 -7 -21 -6
-26 5 -26 8 0 12 6 9 14 -3 8 -1 17 5 21 8 4 8 12 0 26 -6 12 -8 23 -5 26 3 4
0 13 -7 21 -8 10 -8 13 -1 9 7 -4 15 0 18 9 3 8 13 14 22 12 9 -2 19 2 21 9 4
12 -48 16 -64 4z"/>
<path d="M50525 20120 c3 -6 2 -10 -4 -10 -10 0 -6 -38 5 -49 4 -3 4 2 1 12
-4 9 -2 17 4 17 6 0 8 4 5 9 -4 5 -1 11 6 13 7 3 5 7 -6 11 -10 4 -15 3 -11
-3z"/>
<path d="M50400 19905 c0 -8 2 -15 4 -15 2 0 6 7 10 15 3 8 1 15 -4 15 -6 0
-10 -7 -10 -15z"/>
<path d="M50420 19893 c-8 -16 -14 -53 -15 -83 0 -44 -3 -55 -16 -52 -12 2
-16 -8 -17 -43 0 -25 4 -43 9 -39 5 3 7 9 4 14 -3 5 -1 12 5 15 8 5 7 12 -2
23 -8 10 -9 13 -1 9 15 -10 26 9 29 50 1 19 10 40 20 48 16 11 17 15 4 31 -13
16 -13 17 1 12 12 -5 15 -1 11 18 -6 31 -16 30 -32 -3z m15 -33 c3 -5 -1 -10
-10 -10 -9 0 -13 5 -10 10 3 6 8 10 10 10 2 0 7 -4 10 -10z"/>
<path d="M50461 19904 c0 -11 3 -14 6 -6 3 7 2 16 -1 19 -3 4 -6 -2 -5 -13z"/>
<path d="M37940 19521 c0 -6 4 -13 10 -16 6 -3 7 1 4 9 -7 18 -14 21 -14 7z"/>
<path d="M37886 19457 c3 -10 9 -15 12 -12 3 3 0 11 -7 18 -10 9 -11 8 -5 -6z"/>
<path d="M37886 19398 c3 -5 10 -6 15 -3 13 9 11 12 -6 12 -8 0 -12 -4 -9 -9z"/>
<path d="M37785 19370 c3 -5 8 -10 11 -10 2 0 4 5 4 10 0 6 -5 10 -11 10 -5 0
-7 -4 -4 -10z"/>
<path d="M37790 19326 c0 -2 8 -10 18 -17 15 -13 16 -12 3 4 -13 16 -21 21
-21 13z"/>
<path d="M37740 19239 c0 -5 5 -7 10 -4 6 3 10 8 10 11 0 2 -4 4 -10 4 -5 0
-10 -5 -10 -11z"/>
<path d="M37570 19180 c0 -5 5 -10 10 -10 6 0 10 5 10 10 0 6 -4 10 -10 10 -5
0 -10 -4 -10 -10z"/>
<path d="M37540 19169 c0 -5 5 -7 10 -4 6 3 10 8 10 11 0 2 -4 4 -10 4 -5 0
-10 -5 -10 -11z"/>
<path d="M37566 19151 c-3 -5 1 -11 9 -14 9 -4 12 -1 8 9 -6 16 -10 17 -17 5z"/>
<path d="M37530 19140 c0 -5 5 -10 10 -10 6 0 10 5 10 10 0 6 -4 10 -10 10 -5
0 -10 -4 -10 -10z"/>
<path d="M38975 18547 c208 -107 348 -201 461 -309 l92 -88 1621 0 1621 0 0
240 0 240 -1977 0 -1978 0 160 -83z"/>
<path d="M45727 16285 c-252 -48 -425 -199 -492 -430 -14 -46 -16 -79 -11
-159 10 -150 42 -430 81 -704 l34 -243 48 -54 c26 -30 48 -55 50 -55 2 0 1 51
-3 113 -8 145 7 265 35 286 28 21 45 116 37 203 l-6 66 73 31 c96 40 219 75
342 97 126 23 498 26 615 6 126 -23 240 -54 260 -71 12 -10 29 -64 51 -156 29
-122 34 -163 39 -320 l5 -180 59 78 c65 85 64 82 112 387 49 312 69 679 43
799 -19 92 -94 172 -188 202 -20 7 -99 13 -176 15 -113 2 -159 7 -240 28 -194
52 -309 68 -505 72 -135 2 -206 -1 -263 -11z"/>
<path d="M40974 14942 l-1172 -2 -7 -73 c-9 -97 -32 -206 -47 -224 -16 -19
-105 -64 -258 -129 l-125 -54 2039 0 2038 0 -6 223 c-3 122 -6 230 -6 239 0
17 -40 18 -642 20 -354 2 -1170 2 -1814 0z"/>
<path d="M36100 14700 l0 -240 29 0 c28 0 30 3 37 46 7 52 0 153 -22 299 -18
118 -22 135 -35 135 -5 0 -9 -98 -9 -240z"/>
<path d="M46516 13602 c-3 -5 1 -9 9 -9 8 0 12 4 9 9 -3 4 -7 8 -9 8 -2 0 -6
-4 -9 -8z"/>
<path d="M46420 13590 c-9 -6 -10 -10 -3 -10 6 0 15 5 18 10 8 12 4 12 -15 0z"/>
<path d="M46403 13555 c0 -8 4 -12 9 -9 5 3 6 10 3 15 -9 13 -12 11 -12 -6z"/>
<path d="M46459 13543 c-13 -16 -12 -17 4 -4 16 13 21 21 13 21 -2 0 -10 -8
-17 -17z"/>
<path d="M46255 13530 c3 -5 8 -10 11 -10 2 0 4 5 4 10 0 6 -5 10 -11 10 -5 0
-7 -4 -4 -10z"/>
<path d="M46060 13433 c8 -3 21 -11 29 -17 12 -9 13 -8 7 3 -7 10 -4 12 12 7
11 -4 23 -3 25 1 3 4 -16 9 -41 9 -26 1 -40 -1 -32 -3z"/>
<path d="M46026 13413 c-6 -14 -5 -15 5 -6 7 7 10 15 7 18 -3 3 -9 -2 -12 -12z"/>
<path d="M39487 12046 c-4 -9 -3 -15 2 -11 5 3 11 0 13 -7 3 -7 7 -5 11 6 4 9
3 15 -2 11 -5 -3 -11 0 -13 7 -3 7 -7 5 -11 -6z"/>
<path d="M43527 12013 c3 -7 9 -10 14 -7 14 8 11 21 -5 21 -8 0 -12 -6 -9 -14z"/>
<path d="M39495 11860 c-3 -5 -1 -10 4 -10 6 0 11 5 11 10 0 6 -2 10 -4 10 -3
0 -8 -4 -11 -10z"/>
<path d="M17532 10370 c0 -19 2 -27 5 -17 2 9 2 25 0 35 -3 9 -5 1 -5 -18z"/>
<path d="M17552 10370 c0 -14 2 -19 5 -12 2 6 2 18 0 25 -3 6 -5 1 -5 -13z"/>
<path d="M17600 10365 c0 -13 172 -15 1449 -17 797 -2 1447 0 1444 5 -2 4 2 7
9 7 9 0 9 3 -2 10 -10 6 -543 10 -1457 10 -1273 0 -1443 -2 -1443 -15z"/>
<path d="M17530 10284 c0 -38 3 -44 21 -44 18 0 20 5 17 42 -2 30 -8 42 -20
44 -15 2 -18 -6 -18 -42z"/>
<path d="M24680 10280 c0 -5 5 -10 10 -10 6 0 10 5 10 10 0 6 -4 10 -10 10 -5
0 -10 -4 -10 -10z"/>
<path d="M34322 6650 c-161 -47 -410 -51 -597 -10 l-100 22 -91 -95 c-96 -99
-208 -235 -288 -349 -86 -122 -133 -158 -456 -344 -115 -66 -209 -156 -246
-236 -25 -54 -29 -75 -29 -148 0 -68 5 -93 22 -126 27 -51 91 -107 158 -138
262 -124 789 -86 1029 75 90 60 150 124 264 283 130 179 158 204 305 274 135
64 204 118 240 187 42 82 18 250 -75 513 -45 125 -37 120 -136 92z"/>
<path d="M13982 6136 c-51 -46 -107 -154 -132 -252 -18 -70 -20 -112 -20 -436
l0 -358 40 0 39 0 3 153 3 152 29 -140 c86 -420 151 -587 261 -671 85 -65 323
-108 560 -101 164 5 250 21 288 55 39 35 11 129 -89 299 -56 95 -231 363 -238
363 -1 0 22 -47 51 -105 30 -59 53 -116 51 -128 -4 -29 -39 -44 -129 -57 -129
-19 -290 9 -371 64 -84 58 -183 258 -243 491 -48 187 -59 283 -51 460 4 82 8
170 9 194 3 57 -12 61 -61 17z"/>
<path d="M49535 6130 c3 -5 8 -10 11 -10 2 0 4 5 4 10 0 6 -5 10 -11 10 -5 0
-7 -4 -4 -10z"/>
<path d="M17804 6085 c-60 -85 -103 -216 -107 -325 -1 -41 -1 -209 1 -372 l2
-298 40 0 40 0 1 148 1 147 42 -200 c93 -433 165 -579 312 -635 107 -40 230
-61 399 -67 180 -6 285 6 355 40 43 21 45 24 44 65 -1 59 -77 208 -203 400
-55 83 -103 152 -105 152 -3 0 13 -37 34 -82 22 -45 40 -88 40 -95 0 -41 -178
-72 -310 -54 -87 11 -178 47 -219 84 -72 66 -157 252 -210 459 -16 62 -46 211
-66 332 -20 120 -44 243 -54 274 l-17 56 -20 -29z"/>
<path d="M44929 5720 c-24 -19 -24 -19 -3 -20 24 0 50 25 36 34 -6 3 -21 -3
-33 -14z"/>
<path d="M47255 5400 c-3 -5 -1 -10 4 -10 6 0 11 5 11 10 0 6 -2 10 -4 10 -3
0 -8 -4 -11 -10z"/>
</g>
</svg>
