<?xml version="1.0" encoding="UTF-8" standalone="no"?>
<!DOCTYPE svg PUBLIC "-//W3C//DTD SVG 1.1//EN" "http://www.w3.org/Graphics/SVG/1.1/DTD/svg11.dtd">
<svg xmlns="http://www.w3.org/2000/svg" xmlns:xlink="http://www.w3.org/1999/xlink" version="1.1" width="793.7008pt" height="595.2756pt" viewBox="0 0 793.7008 595.2756">
<g enable-background="new">
<g id="Layer-1" data-name="Layer 1">
<path transform="matrix(1,0,0,-1,0,595.2756)" d="M 279.1494 278.9649 L 279.1494 340.4775 L 231.1841 371.2337 L 183.2199 340.4775 L 183.2199 278.9649 L 231.1841 248.2087 Z " fill="#30408c"/>
<path transform="matrix(1,0,0,-1,0,595.2756)" d="M 324.6372 318.3233 C 324.6372 320.2362 324.2843 322.0517 323.5881 323.7707 C 322.8919 325.4896 321.8871 327.0231 320.5826 328.3631 C 319.3044 329.694 317.8324 330.7076 316.1577 331.4217 C 314.4742 332.1354 312.7025 332.4969 310.8515 332.4969 C 308.9917 332.4969 307.22 332.1442 305.5365 331.439 C 303.8615 330.734 302.3634 329.7115 301.0586 328.3631 C 299.7544 327.0407 298.7493 325.516 298.0619 323.797 C 297.3745 322.0784 297.0306 320.2537 297.0306 318.3233 C 297.0306 316.4108 297.3745 314.6037 298.0619 312.9026 C 298.7493 311.2016 299.7544 309.6765 301.0586 308.3366 C 302.3634 306.9884 303.8528 305.966 305.5275 305.2607 C 307.1934 304.5555 308.9741 304.2028 310.8515 304.2028 C 312.6937 304.2028 314.439 304.5555 316.1047 305.2607 C 317.7618 305.966 319.2605 306.9884 320.5826 308.3366 C 321.8871 309.6765 322.8919 311.2016 323.5881 312.9114 C 324.2843 314.6304 324.6372 316.4284 324.6372 318.3233 Z M 331.0362 318.3233 C 331.0362 315.635 330.5339 313.0965 329.529 310.7078 C 328.5153 308.3105 327.0523 306.1772 325.122 304.3001 C 323.1825 302.4224 320.9879 300.9858 318.5374 299.9897 C 316.0962 298.9936 313.5311 298.4913 310.8515 298.4913 C 308.1277 298.4913 305.5365 298.9936 303.0596 299.9985 C 300.5918 301.0122 298.4145 302.44 296.5192 304.3001 C 294.5891 306.1772 293.1259 308.3014 292.1298 310.6814 C 291.134 313.0526 290.6314 315.5998 290.6314 318.3233 C 290.6314 321.0293 291.134 323.5768 292.1298 325.9655 C 293.1259 328.3631 294.5891 330.5049 296.5192 332.3999 C 298.4496 334.2773 300.6357 335.7051 303.0772 336.6836 C 305.5187 337.6621 308.1104 338.1557 310.8515 338.1557 C 313.5662 338.1557 316.1401 337.6621 318.5816 336.6836 C 321.0143 335.7051 323.2003 334.2773 325.122 332.3999 C 327.0523 330.4871 328.5153 328.3277 329.529 325.9301 C 330.5339 323.5238 331.0362 320.9941 331.0362 318.3233 Z M 344.2136 321.4964 L 345.7913 321.4964 C 349.2026 321.4964 351.4765 321.8666 352.6138 322.6073 C 353.7507 323.3475 354.3148 324.6523 354.3148 326.5294 C 354.3148 328.5391 353.7065 329.9581 352.4902 330.787 C 351.2826 331.6068 349.0438 332.0209 345.7913 332.0209 L 344.2136 332.0209 Z M 343.8434 316.4723 L 343.8434 299.4962 L 338.0788 299.4962 L 338.0788 337.3095 L 347.3691 337.3095 C 350.1281 337.3095 352.1551 337.1596 353.4599 336.8599 C 354.7556 336.5603 355.8926 336.0577 356.8623 335.3703 C 358.052 334.4975 358.9775 333.3078 359.6564 331.827 C 360.3263 330.3374 360.661 328.6979 360.661 326.9086 C 360.661 325.1103 360.3263 323.462 359.6564 321.946 C 358.9775 320.43 358.052 319.2403 356.8623 318.3851 C 355.8926 317.6977 354.7556 317.2039 353.4599 316.9131 C 352.1551 316.6223 350.1281 316.4723 347.3691 316.4723 L 346.1615 316.4723 Z M 366.2229 299.4962 L 366.2229 337.3095 L 387.3243 337.3095 L 387.3243 332.0736 L 372.3579 332.0736 L 372.3579 322.6073 L 387.3243 322.6073 L 387.3243 317.2127 L 372.3579 317.2127 L 372.3579 304.9963 L 387.3243 304.9963 L 387.3243 299.4962 Z M 394.3672 299.4962 L 394.3672 338.7903 L 418.3948 315.688 C 419.0471 315.0357 419.7084 314.3392 420.387 313.5988 C 421.0569 312.8587 421.7621 312.0214 422.5022 311.0956 L 422.5022 337.3095 L 428.161 337.3095 L 428.161 298.0151 L 403.666 321.5494 C 403.0138 322.1929 402.3791 322.8627 401.7711 323.568 C 401.1542 324.2733 400.5814 325.0134 400.0258 325.7892 L 400.0258 299.4962 Z " fill="#30408c"/>
<path transform="matrix(1,0,0,-1,0,595.2756)" d="M 452.806 299.4962 L 452.806 338.7903 L 476.8336 315.688 C 477.4859 315.0357 478.1472 314.3392 478.8258 313.5988 C 479.4956 312.8587 480.2009 312.0214 480.9413 311.0956 L 480.9413 337.3095 L 486.6001 337.3095 L 486.6001 298.0151 L 462.1051 321.5494 C 461.4528 322.1929 460.8181 322.8627 460.2101 323.568 C 459.593 324.2733 459.0201 325.0134 458.4648 325.7892 L 458.4648 299.4962 Z M 495.3878 299.4962 L 495.3878 337.3095 L 501.5225 337.3095 L 501.5225 299.4962 Z M 516.4982 305.049 L 521.6723 305.049 C 524.5104 305.049 526.6434 305.2341 528.0627 305.6131 C 529.4906 305.9921 530.7245 306.6355 531.7733 307.5259 C 533.2014 308.751 534.2766 310.267 534.9906 312.0919 C 535.7047 313.9075 536.0658 316.023 536.0658 318.4291 C 536.0658 320.8442 535.7047 322.9509 534.9906 324.7668 C 534.2766 326.5911 533.2014 328.1074 531.7733 329.3325 C 530.7069 330.2226 529.4288 330.8661 527.9391 331.2451 C 526.4495 331.6241 524.1135 331.8092 520.9404 331.8092 L 518.7195 331.8092 L 516.4982 331.8092 Z M 510.3635 299.4962 L 510.3635 337.3095 L 518.6401 337.3095 C 524.0344 337.3095 527.8246 337.0363 530.0283 336.4985 C 532.2229 335.952 534.1445 335.0443 535.8013 333.775 C 537.9874 332.1003 539.6445 329.9581 540.7727 327.3406 C 541.9012 324.7228 542.4653 321.7346 542.4653 318.3763 C 542.4653 315.0181 541.9012 312.0477 540.7727 309.4563 C 539.6445 306.8649 537.9874 304.723 535.8013 303.0307 C 534.1445 301.7614 532.2671 300.8534 530.1516 300.3069 C 528.0449 299.7694 524.757 299.4962 520.2972 299.4962 L 518.6401 299.4962 Z M 549.3492 337.3095 L 555.431 337.3095 L 555.431 314.348 C 555.431 310.9459 556.2153 308.3808 557.7931 306.671 C 559.3708 304.952 561.7244 304.0971 564.8621 304.0971 C 567.9737 304.0971 570.3182 304.952 571.896 306.671 C 573.4738 308.3808 574.2581 310.9459 574.2581 314.348 L 574.2581 337.3095 L 580.3931 337.3095 L 580.3931 313.7839 C 580.3931 308.6717 579.1062 304.8375 576.5236 302.2991 C 573.9409 299.7607 570.045 298.4913 564.8445 298.4913 C 559.6441 298.4913 555.7657 299.7607 553.2009 302.2903 C 550.6359 304.8199 549.3492 308.6541 549.3492 313.7839 Z M 586.6951 307.0675 L 591.5959 309.333 C 592.0631 307.6492 592.918 306.3623 594.161 305.481 C 595.3949 304.5906 596.9815 304.1501 598.9119 304.1501 C 600.7453 304.1501 602.1907 304.6612 603.275 305.6749 C 604.3501 306.6885 604.8879 308.046 604.8879 309.7471 C 604.8879 311.9683 603.0459 313.9515 599.3527 315.688 C 598.8325 315.9437 598.4359 316.1375 598.1627 316.2521 C 593.9935 318.2882 591.2169 320.1216 589.8331 321.77 C 588.4495 323.418 587.7527 325.4278 587.7527 327.7987 C 587.7527 330.8839 588.8018 333.3781 590.8907 335.291 C 592.9798 337.2038 595.7297 338.1557 599.1233 338.1557 C 601.9089 338.1557 604.2444 337.6179 606.1218 336.5425 C 607.9995 335.4673 609.2952 333.9247 610.0177 331.9152 L 605.2229 329.4295 C 604.4647 330.6195 603.6361 331.492 602.7284 332.0385 C 601.8205 332.5938 600.7805 332.8671 599.6083 332.8671 C 597.9597 332.8671 596.6376 332.4351 595.6682 331.5713 C 594.69 330.7164 594.2049 329.5619 594.2049 328.1159 C 594.2049 325.842 596.3468 323.7177 600.622 321.7609 C 600.948 321.6022 601.2037 321.4789 601.3976 321.3998 C 605.1348 319.6721 607.6998 317.9886 609.0925 316.349 C 610.4849 314.7009 611.1814 312.647 611.1814 310.1876 C 611.1814 306.6092 610.0532 303.762 607.7965 301.6556 C 605.5404 299.5489 602.4903 298.4913 598.6474 298.4913 C 595.4301 298.4913 592.7947 299.2317 590.7322 300.7125 C 588.6785 302.1934 587.3298 304.3089 586.6951 307.0675 " fill="#3bbded"/>
<path transform="matrix(1,0,0,-1,0,595.2756)" d="M 217.4176 314.0382 C 221.5962 313.5784 225.6386 309.306 229.9167 304.7828 C 233.7077 300.7746 238.009 296.2301 241.0016 296.4878 C 245.5455 296.875 252.9037 303.0809 261.7583 313.9781 C 258.8409 326.4171 252.7637 337.2143 243.3254 346.1448 C 235.6594 353.3987 228.7225 353.4109 220.5609 346.6349 C 215.3563 342.3149 211.3852 336.9668 208.0879 331.1348 C 203.207 322.501 199.9259 313.4716 199.6994 303.7258 C 200.5265 304.4767 201.4055 305.2536 202.3191 306.0298 C 209.0971 311.7906 214.0362 314.4098 217.4176 314.0382 " fill="#3bbded"/>
<path transform="matrix(1,0,0,-1,0,595.2756)" d="M 240.9389 291.257 C 240.7501 291.2414 240.5611 291.2332 240.3731 291.2332 C 235.83 291.2323 231.4845 295.827 226.8944 300.6797 C 223.4251 304.3468 219.494 308.503 216.6457 308.8165 C 213.3037 309.185 205.5591 303.1186 199.4675 297.2982 C 199.5253 296.5836 199.5987 295.8661 199.6909 295.1436 C 201.704 279.3691 214.6246 267.9341 230.6704 267.7912 C 244.0896 267.6716 255.3344 274.9856 260.282 287.1692 C 262.9851 293.8255 263.4727 300.7341 262.3096 307.7768 C 253.4394 297.267 246.2579 291.7106 240.9389 291.257 " fill="#ffffff"/>
<path transform="matrix(1,0,0,-1,0,595.2756)" d="M 379.6877 273.1348 L 377.8583 273.1348 L 377.8583 289.8876 L 374.1469 289.8876 L 374.1469 291.7171 L 383.3989 291.7171 L 383.3989 289.8876 L 379.6877 289.8876 Z " fill="#2b2929"/>
<path transform="matrix(1,0,0,-1,0,595.2756)" d="M 397.7124 279.5902 L 385.0367 279.5902 C 385.1459 278.0614 385.7034 276.8244 386.6964 275.8833 C 387.6939 274.9382 388.9355 274.4677 390.4251 274.4677 C 391.4836 274.4677 392.4332 274.7421 393.2739 275.2911 C 394.1189 275.8399 394.7681 276.6022 395.2295 277.5779 L 397.2682 277.5779 C 396.6236 276.0228 395.7131 274.8249 394.5458 273.9929 C 393.374 273.1609 392.0193 272.7428 390.4818 272.7428 C 388.4389 272.7428 386.7094 273.4702 385.2981 274.9252 C 383.887 276.3799 383.1812 278.1312 383.1812 280.1696 C 383.1812 282.3083 383.874 284.0726 385.2547 285.4664 C 386.6355 286.8647 388.404 287.5615 390.5558 287.5615 C 392.6639 287.5615 394.3845 286.8341 395.7174 285.3836 C 397.046 283.9331 397.7124 282.047 397.7124 279.7209 Z M 395.7262 281.1583 C 395.3866 282.7179 394.7593 283.894 393.8488 284.6823 C 392.9386 285.4706 391.7492 285.8627 390.2856 285.8627 C 388.9222 285.8627 387.7679 285.4403 386.8228 284.5908 C 385.882 283.7458 385.3026 282.6003 385.0892 281.1583 Z " fill="#2b2929"/>
<path transform="matrix(1,0,0,-1,0,595.2756)" d="M 411.0154 282.8571 C 410.4621 283.881 409.7871 284.6387 408.99 285.1265 C 408.1972 285.6189 407.2476 285.8627 406.1497 285.8627 C 404.7038 285.8627 403.4752 285.3139 402.4647 284.2163 C 401.4587 283.1185 400.9533 281.7638 400.9533 280.1477 C 400.9533 278.5317 401.4587 277.1816 402.4735 276.0968 C 403.484 275.0122 404.7386 274.4677 406.2283 274.4677 C 407.3173 274.4677 408.28 274.7336 409.1119 275.2693 C 409.9482 275.8051 410.5797 276.5585 411.0154 277.5257 L 413.0016 277.5257 C 412.4571 276.0055 411.6036 274.8249 410.436 273.9929 C 409.2729 273.1609 407.901 272.7428 406.3153 272.7428 C 404.2857 272.7428 402.5693 273.4659 401.171 274.9076 C 399.7729 276.3496 399.0716 278.0875 399.0716 280.1217 C 399.0716 282.1952 399.7814 283.955 401.1973 285.3967 C 402.6129 286.8386 404.3378 287.5615 406.3677 287.5615 C 407.8922 287.5615 409.2338 287.1522 410.3926 286.329 C 411.5554 285.5055 412.4222 284.347 413.0016 282.8571 Z " fill="#2b2929"/>
<path transform="matrix(1,0,0,-1,0,595.2756)" d="M 415.5891 291.7171 L 417.3661 291.7171 L 417.3661 285.5273 C 417.8846 286.1677 418.5074 286.6467 419.235 286.9736 C 419.9624 287.2959 420.7813 287.4572 421.683 287.4572 C 423.6562 287.4572 425.0937 286.8951 425.9954 285.7669 C 426.8971 284.6387 427.35 282.8049 427.35 280.2699 L 427.35 273.1348 L 425.5727 273.1348 L 425.5727 280.296 C 425.5727 282.3301 425.268 283.7415 424.6537 284.5386 C 424.0395 285.3357 423.0159 285.732 421.5784 285.732 C 420.7595 285.732 420.0452 285.5665 419.4266 285.2399 C 418.8124 284.9131 418.3245 284.4428 417.9674 283.8285 C 417.7451 283.4495 417.5884 283.0096 417.5014 282.5218 C 417.4098 282.0339 417.3661 281.1801 417.3661 279.9649 L 417.3661 273.1348 L 415.5891 273.1348 Z " fill="#2b2929"/>
<path transform="matrix(1,0,0,-1,0,595.2756)" d="M 430.2031 287.1694 L 431.9541 287.1694 L 431.9541 285.5798 C 432.5074 286.2156 433.1477 286.6904 433.8751 286.9954 C 434.6025 287.3047 435.4345 287.4572 436.371 287.4572 C 437.4034 287.4572 438.3181 287.2653 439.124 286.882 C 439.9254 286.4988 440.5615 285.95 441.032 285.2357 C 441.3543 284.7345 441.5851 284.1423 441.7288 283.4671 C 441.8683 282.7919 441.938 281.7944 441.938 280.4746 L 441.938 273.1348 L 440.1607 273.1348 L 440.1607 280.9973 C 440.1607 282.657 439.8426 283.8591 439.2111 284.6083 C 438.5752 285.3575 437.5602 285.732 436.1664 285.732 C 435.3474 285.732 434.6331 285.5665 434.0146 285.2399 C 433.4003 284.9131 432.9125 284.4428 432.5553 283.8285 C 432.3331 283.4495 432.1763 283.0096 432.0893 282.5218 C 431.9977 282.0339 431.9541 281.1801 431.9541 279.9649 L 431.9541 273.1348 L 430.2031 273.1348 Z " fill="#2b2929"/>
<path transform="matrix(1,0,0,-1,0,595.2756)" d="M 445.915 280.1741 C 445.915 278.5535 446.4289 277.1989 447.4613 276.1055 C 448.4891 275.0122 449.7741 274.4677 451.3031 274.4677 C 452.8103 274.4677 454.0779 275.0122 455.0973 276.1055 C 456.1209 277.1989 456.6305 278.5623 456.6305 280.1957 C 456.6305 281.8553 456.1121 283.2188 455.0797 284.286 C 454.0431 285.3533 452.7317 285.889 451.1375 285.889 C 449.7089 285.889 448.4806 285.34 447.4525 284.2424 C 446.4289 283.1448 445.915 281.7901 445.915 280.1741 Z M 444.0331 280.1392 C 444.0331 282.1995 444.7389 283.9592 446.15 285.4185 C 447.5614 286.882 449.2341 287.6139 451.1636 287.6139 C 453.198 287.6139 454.9317 286.8951 456.3646 285.4576 C 457.7978 284.0202 458.5122 282.3083 458.5122 280.3178 C 458.5122 278.227 457.8109 276.4409 456.4083 274.9601 C 455.0057 273.4832 453.3024 272.7428 451.3031 272.7428 C 449.2732 272.7428 447.5526 273.4659 446.1457 274.9164 C 444.7389 276.3669 444.0331 278.1094 444.0331 280.1392 " fill="#2b2929"/>
<path transform="matrix(1,0,0,-1,0,595.2756)" d="M 460.6551 273.1348 L 460.6551 291.7171 L 462.4586 291.7171 L 462.4586 273.1348 Z " fill="#2b2929"/>
<path transform="matrix(1,0,0,-1,0,595.2756)" d="M 466.488 280.1741 C 466.488 278.5535 467.0019 277.1989 468.0343 276.1055 C 469.0621 275.0122 470.3471 274.4677 471.8761 274.4677 C 473.3833 274.4677 474.6509 275.0122 475.6703 276.1055 C 476.6939 277.1989 477.2035 278.5623 477.2035 280.1957 C 477.2035 281.8553 476.6851 283.2188 475.6527 284.286 C 474.6161 285.3533 473.3048 285.889 471.7106 285.889 C 470.2819 285.889 469.0536 285.34 468.0255 284.2424 C 467.0019 283.1448 466.488 281.7901 466.488 280.1741 Z M 464.6061 280.1392 C 464.6061 282.1995 465.3119 283.9592 466.723 285.4185 C 468.1344 286.882 469.8071 287.6139 471.7366 287.6139 C 473.7711 287.6139 475.5047 286.8951 476.9376 285.4576 C 478.3708 284.0202 479.0852 282.3083 479.0852 280.3178 C 479.0852 278.227 478.3839 276.4409 476.9813 274.9601 C 475.5787 273.4832 473.8754 272.7428 471.8761 272.7428 C 469.8462 272.7428 468.1256 273.4659 466.7187 274.9164 C 465.3119 276.3669 464.6061 278.1094 464.6061 280.1392 " fill="#2b2929"/>
<path transform="matrix(1,0,0,-1,0,595.2756)" d="M 483.6064 271.9848 C 483.8811 271.1704 484.3732 270.5343 485.0875 270.0814 C 485.8019 269.6238 486.6687 269.3974 487.6923 269.3974 C 489.291 269.3974 490.576 269.9289 491.5386 270.9961 C 492.5058 272.0588 492.9891 273.479 492.9891 275.2605 L 492.9891 275.6307 C 492.3096 274.703 491.5344 274.0017 490.6675 273.5311 C 489.7962 273.0563 488.8423 272.8213 487.7969 272.8213 C 485.6842 272.8213 483.9333 273.5269 482.5349 274.9337 C 481.1411 276.3408 480.4441 278.0963 480.4441 280.1957 C 480.4441 282.2649 481.1323 283.9983 482.5131 285.4054 C 483.8896 286.808 485.5972 287.5093 487.6271 287.5093 C 488.812 287.5093 489.8356 287.2959 490.6979 286.8732 C 491.5604 286.4466 492.3269 285.7844 492.9891 284.8785 L 492.9891 287.1694 L 494.7403 287.1694 L 494.7403 275.4652 C 494.7403 273.0129 494.1261 271.0962 492.8978 269.7154 C 491.6693 268.3346 489.9747 267.6464 487.8145 267.6464 C 486.2245 267.6464 484.861 268.0384 483.7198 268.8267 C 482.5828 269.6153 481.8467 270.665 481.5156 271.9848 Z M 482.3521 280.2742 C 482.3521 278.6321 482.8748 277.2598 483.9157 276.1534 C 484.9611 275.0471 486.2157 274.4938 487.688 274.4938 C 489.0776 274.4938 490.3016 275.0471 491.3688 276.1577 C 492.4315 277.2686 492.963 278.5711 492.963 280.0695 C 492.963 281.668 492.4403 283.0357 491.3906 284.1639 C 490.3452 285.2966 489.1124 285.8627 487.688 285.8627 C 486.2245 285.8627 484.9699 285.3227 483.9245 284.2466 C 482.8748 283.1709 482.3521 281.8466 482.3521 280.2742 " fill="#2b2929"/>
<path transform="matrix(1,0,0,-1,0,595.2756)" d="M 499.3662 288.8161 L 497.5628 288.8161 L 497.5628 291.7171 L 499.3662 291.7171 Z M 497.5628 273.1348 L 497.5628 287.1694 L 499.3662 287.1694 L 499.3662 273.1348 Z " fill="#2b2929"/>
<path transform="matrix(1,0,0,-1,0,595.2756)" d="M 516.045 279.5902 L 503.3693 279.5902 C 503.4784 278.0614 504.036 276.8244 505.029 275.8833 C 506.0265 274.9382 507.2681 274.4677 508.7577 274.4677 C 509.8161 274.4677 510.7657 274.7421 511.6065 275.2911 C 512.4515 275.8399 513.1006 276.6022 513.5621 277.5779 L 515.6008 277.5779 C 514.9562 276.0228 514.0457 274.8249 512.8784 273.9929 C 511.7066 273.1609 510.3519 272.7428 508.8144 272.7428 C 506.7714 272.7428 505.042 273.4702 503.6306 274.9252 C 502.2196 276.3799 501.5137 278.1312 501.5137 280.1696 C 501.5137 282.3083 502.2065 284.0726 503.5873 285.4664 C 504.968 286.8647 506.7366 287.5615 508.8883 287.5615 C 510.9965 287.5615 512.7171 286.8341 514.05 285.3836 C 515.3786 283.9331 516.045 282.047 516.045 279.7209 Z M 514.0587 281.1583 C 513.7191 282.7179 513.0918 283.894 512.1814 284.6823 C 511.2711 285.4706 510.0817 285.8627 508.6182 285.8627 C 507.2547 285.8627 506.1005 285.4403 505.1554 284.5908 C 504.2146 283.7458 503.6352 282.6003 503.4217 281.1583 Z " fill="#2b2929"/>
<path transform="matrix(1,0,0,-1,0,595.2756)" d="M 517.2211 277.5518 L 519.0766 277.5518 L 519.0766 277.4993 C 519.0766 276.624 519.3295 275.9009 519.8304 275.3257 C 520.3312 274.7551 520.9498 274.4677 521.6902 274.4677 C 522.3915 274.4677 522.9797 274.6899 523.4457 275.1299 C 523.9117 275.574 524.147 276.1316 524.147 276.8026 C 524.147 277.4733 523.9596 278.0135 523.5894 278.4229 C 523.2192 278.8279 522.5485 279.2115 521.5813 279.5686 C 520.0262 280.1217 519.0114 280.688 518.5366 281.2674 C 518.0618 281.8466 517.8223 282.6221 517.8223 283.589 C 517.8223 284.6866 518.2186 285.6189 519.0157 286.3854 C 519.8085 287.1522 520.7754 287.5354 521.9036 287.5354 C 523.1061 287.5354 524.0557 287.1958 524.7612 286.5161 C 525.4668 285.8323 525.8458 284.8827 525.8982 283.6675 L 523.9641 283.6675 C 523.9205 284.3294 523.7116 284.8436 523.3326 285.2093 C 522.9536 285.5752 522.4394 285.7584 521.7817 285.7584 C 521.1981 285.7584 520.706 285.5622 520.3182 285.1659 C 519.9262 284.7694 519.73 284.2773 519.73 283.6936 C 519.73 283.2755 519.8128 282.9226 519.9741 282.6394 C 520.1354 282.352 520.401 282.0949 520.7754 281.8684 C 521.1153 281.6549 521.6119 281.4503 522.2653 281.2541 C 522.9187 281.0582 523.3541 280.9145 523.5763 280.823 C 524.4562 280.4485 525.1011 279.9473 525.5147 279.3288 C 525.9285 278.706 526.1332 277.9177 526.1332 276.9551 C 526.1332 275.7484 525.7108 274.7466 524.8701 273.9538 C 524.0251 273.1654 522.9578 272.7689 521.6641 272.7689 C 520.3443 272.7689 519.2858 273.2003 518.4845 274.0626 C 517.6828 274.9252 517.2647 276.0883 517.2211 277.5518 " fill="#2b2929"/>
<path transform="matrix(1,0,0,-1,0,595.2756)" stroke-width="2.8346" stroke-linecap="butt" stroke-miterlimit="22.925585" stroke-linejoin="miter" fill="none" stroke="#3bbded" d="M 300.263 279.4442 L 368.1014 279.9184 "/>
<path transform="matrix(1,0,0,-1,0,595.2756)" stroke-width="2.8346" stroke-linecap="butt" stroke-miterlimit="22.925585" stroke-linejoin="miter" fill="none" stroke="#30408c" d="M 535.4209 279.5825 L 613.2951 279.7812 "/>
</g>
</g>
</svg>
