<?xml version="1.0" standalone="no"?>
<!DOCTYPE svg PUBLIC "-//W3C//DTD SVG 20010904//EN"
 "http://www.w3.org/TR/2001/REC-SVG-20010904/DTD/svg10.dtd">
<svg version="1.0" xmlns="http://www.w3.org/2000/svg"
 width="158.000000pt" height="50.000000pt" viewBox="0 0 158.000000 50.000000"
 preserveAspectRatio="xMidYMid meet">

<g transform="translate(0.000000,50.000000) scale(0.100000,-0.100000)"
fill="#000000" stroke="none">
<path d="M167 373 c-4 -3 -7 -53 -7 -110 l0 -103 113 0 112 0 -5 82 c-3 46 -8
88 -12 94 -16 24 -78 44 -135 44 -33 0 -63 -3 -66 -7z m167 -74 c14 -56 -9
-93 -59 -97 -29 -3 -43 1 -52 14 -16 21 -17 63 -3 99 9 24 14 26 57 23 46 -3
48 -5 57 -39z"/>
<path d="M257 290 c-23 -25 -26 -33 -17 -50 8 -15 19 -20 38 -18 25 3 27 7 27
47 0 24 -4 46 -10 47 -5 2 -23 -10 -38 -26z"/>
<path d="M1242 288 c-1 -25 -5 -53 -8 -62 -8 -21 -51 -20 -62 2 -13 25 -4 42
24 42 13 0 24 5 24 11 0 6 -14 9 -32 7 -31 -3 -33 -5 -33 -43 0 -40 0 -40 43
-43 50 -4 55 3 49 79 l-3 54 -2 -47z"/>
<path d="M442 308 c-7 -7 -12 -28 -12 -48 0 -47 15 -60 65 -60 50 0 65 13 65
60 0 47 -15 60 -65 60 -23 0 -46 -5 -53 -12z m89 -8 c22 -12 26 -59 7 -78 -13
-13 -47 -16 -72 -6 -20 7 -22 80 -3 87 21 9 47 7 68 -3z"/>
<path d="M596 275 c-9 -25 -7 -105 3 -105 4 0 8 10 8 23 1 69 3 75 28 79 52
10 62 -52 10 -64 -29 -6 -29 -6 5 -5 34 2 35 3 35 42 0 40 0 40 -41 43 -31 2
-43 -1 -48 -13z"/>
<path d="M724 276 c-3 -8 -4 -27 -2 -43 3 -24 7 -28 38 -30 34 -1 34 -1 5 5
-49 12 -42 76 8 68 31 -4 33 -26 3 -26 -14 0 -26 -4 -26 -10 0 -16 46 -12 60
5 7 8 10 22 6 30 -7 20 -84 21 -92 1z"/>
<path d="M847 283 c-11 -10 -8 -83 3 -83 6 0 10 16 10 36 0 34 1 35 33 32 28
-3 32 -7 35 -35 2 -18 7 -33 13 -33 12 0 0 73 -15 82 -14 10 -70 10 -79 1z"/>
<path d="M977 283 c-11 -10 -8 -83 3 -83 6 0 10 16 10 36 0 34 1 35 33 32 28
-3 32 -7 35 -35 2 -18 7 -33 11 -33 14 0 11 59 -5 74 -15 16 -75 22 -87 9z"/>
<path d="M1108 268 c-2 -13 -1 -34 3 -48 5 -19 7 -14 8 23 1 50 -4 62 -11 25z"/>
<path d="M1280 257 c0 -43 15 -57 62 -57 l38 0 -1 48 -2 47 -6 -40 c-5 -36 -9
-40 -36 -40 -27 0 -30 3 -33 38 -4 46 -22 49 -22 4z"/>
<path d="M1413 274 c-7 -20 5 -32 40 -36 40 -4 34 -22 -10 -29 -38 -7 -38 -7
7 -5 35 1 46 5 48 20 5 22 -13 36 -45 36 -13 0 -23 5 -23 11 0 6 13 8 30 5 17
-2 30 0 30 5 0 16 -70 10 -77 -7z"/>
</g>
</svg>
